<svg xmlns="http://www.w3.org/2000/svg" xmlns:xlink="http://www.w3.org/1999/xlink" height="32" viewBox="0 0 32 32" width="32"><title>Template icons dark</title><defs><linearGradient id="d"><stop offset="0" stop-color="#f7f7f7"/><stop offset="1" stop-color="#e8e8e8"/></linearGradient><linearGradient id="c"><stop offset="0" stop-color="#dedede"/><stop offset="1" stop-color="#fff" stop-opacity=".974"/></linearGradient><linearGradient id="b"><stop offset="0" stop-color="#ff053c"/><stop offset="1" stop-color="#0b31ff" stop-opacity=".974"/></linearGradient><linearGradient id="a"><stop offset="0" stop-color="#c62091"/><stop offset="1" stop-color="#9d2525"/></linearGradient><linearGradient xlink:href="#a" id="e" x1="24.535" y1="7.996" x2="24.705" y2="38.25" gradientUnits="userSpaceOnUse" gradientTransform="matrix(.50627 0 0 .50627 -28.192 -28.94)"/><linearGradient xlink:href="#d" id="f" gradientUnits="userSpaceOnUse" x1="272" y1="298" x2="272" y2="237.102" gradientTransform="matrix(.25 0 0 .25 -84.25 -84.945)"/></defs><g transform="translate(32 32)"><path style="isolation:auto;mix-blend-mode:normal;marker:none" d="M0-16l-10.01 2.047 6.954 7.842-9.241-4.53L-11.056 0-16-9.377-20.944 0l1.241-10.642-9.241 4.53 6.953-7.841L-32-16l10.01-2.047-6.954-7.842 9.241 4.53L-20.944-32-16-22.623-11.056-32l-1.241 10.642 9.241-4.53-6.953 7.841z" color="#000" display="block" overflow="visible" fill="#e8e8e8"/><path style="isolation:auto;mix-blend-mode:normal;marker:none" d="M-5.426-16A10.574 10.574 0 0 1-16-5.426 10.574 10.574 0 0 1-26.574-16 10.574 10.574 0 0 1-16-26.574 10.574 10.574 0 0 1-5.426-16z" color="#000" overflow="visible" fill="url(#e)" stroke="#fff" stroke-width=".589"/><path style="line-height:1000%;-inkscape-font-specification:Sagar" d="M-15.872-26.102c-.92 0-1.64.164-2.163.491-.522.327-.783.734-.783 1.22l.108.997 2.27 9.942h.892l2.298-9.942v-.863c0-.566-.252-1.012-.757-1.34-.504-.337-1.126-.505-1.865-.505zm-.162 13.655a2.252 2.252 0 0 0-2.252 2.252 2.252 2.252 0 0 0 2.252 2.252 2.252 2.252 0 0 0 2.252-2.252 2.252 2.252 0 0 0-2.252-2.252z" font-weight="400" font-family="Sagar" letter-spacing="0" word-spacing="0" fill="url(#f)" paint-order="stroke fill markers"/><circle style="isolation:auto;mix-blend-mode:normal;marker:none" cx="-16" cy="-16" r="11.166" color="#000" display="block" overflow="visible" fill-opacity=".157"/></g></svg>