<svg xmlns="http://www.w3.org/2000/svg" xmlns:xlink="http://www.w3.org/1999/xlink" height="32" viewBox="0 0 32 32" width="32"><title>Template icons dark</title><defs><linearGradient id="c"><stop offset="0" stop-color="#c3c2dd"/><stop offset="1" stop-color="#fff" stop-opacity=".962"/></linearGradient><linearGradient id="b"><stop offset="0" stop-color="#5a41e2"/><stop offset="1" stop-color="#4c9ce0" stop-opacity=".945"/></linearGradient><linearGradient id="a"><stop offset="0" stop-color="#fffefe"/><stop offset="1" stop-color="#fff" stop-opacity=".855"/></linearGradient><linearGradient gradientTransform="matrix(.3409 0 0 .3409 -70.546 -70.545)" xlink:href="#c" id="d" x1="171.402" y1="199.004" x2="171.402" y2="116" gradientUnits="userSpaceOnUse"/></defs><g transform="translate(32 32)"><rect style="isolation:auto;mix-blend-mode:normal;marker:none" width="32" height="32" x="-32" y="-32" ry="4.417" color="#000" display="block" overflow="visible" fill-opacity=".126" stroke-width=".18" stroke-opacity=".104" paint-order="fill markers stroke"/><rect ry="4.141" y="-31" x="-31" height="30" width="30" style="isolation:auto;mix-blend-mode:normal;marker:none" color="#000" display="block" overflow="visible" fill="url(#d)" stroke-width=".169" stroke-opacity=".104" paint-order="fill markers stroke"/><path style="line-height:23.4421711px;font-variant-ligatures:normal;font-variant-position:normal;font-variant-caps:normal;font-variant-numeric:normal;font-variant-alternates:normal;font-feature-settings:normal;text-indent:0;text-align:start;text-decoration-line:none;text-decoration-style:solid;text-decoration-color:#000;text-transform:none;text-orientation:mixed;shape-padding:0;isolation:auto;mix-blend-mode:normal" d="M-15.745-24.041l-.78.406-11.98 6.245v2.812l10.245 5.746v-3.58l-6.301-3.532 8.816-4.506zm2.27 2.103v3.579l6.3 3.533-8.816 4.506v3.59l12.76-6.65v-2.812z" color="#000" font-weight="400" font-family="sans-serif" letter-spacing="0" word-spacing="0" white-space="normal" overflow="visible" fill-opacity=".154" stroke-width="1.067"/><path style="line-height:23.4421711px" d="M-16.278-21.487l-9.413 4.81 6.897 3.867v2.357l-9.177-5.149v-2.176l11.693-6.095z" font-weight="400" font-family="sans-serif" letter-spacing="0" word-spacing="0" fill="#483d8b" stroke="#483d8b" stroke-width="1.067"/><path d="M-15.457-10.705l9.413-4.81-6.898-3.868v-2.356l9.178 5.148v2.176l-11.693 6.096z" style="line-height:23.4421711px" font-weight="400" font-size="20.178" font-family="sans-serif" letter-spacing="0" word-spacing="0" fill="#688ccb" stroke="#688ccb" stroke-width="1.067"/><path style="isolation:auto;mix-blend-mode:normal;marker:none" d="M-31-5.482v.341A4.132 4.132 0 0 0-26.86-1h21.72A4.132 4.132 0 0 0-1-5.14v-.342c0 2.294-1.847 3.493-4.14 3.493h-21.72c-2.293 0-4.14-1.199-4.14-3.493z" color="#000" display="block" overflow="visible" fill="#f2f2f8" stroke-width=".169" stroke-opacity=".104" paint-order="fill markers stroke"/><path style="line-height:23.4421711px;font-variant-ligatures:normal;font-variant-position:normal;font-variant-caps:normal;font-variant-numeric:normal;font-variant-alternates:normal;font-feature-settings:normal;text-indent:0;text-align:start;text-decoration-line:none;text-decoration-style:solid;text-decoration-color:#000;text-transform:none;text-orientation:mixed;shape-padding:0;isolation:auto;mix-blend-mode:normal" d="M-15.745-21.517l-8.816 4.507.332.186 8.484-4.337zm2.27 2.091v.356l5.969 3.346.332-.17zm-15.03 3.78v.356l10.245 5.747V-9.9zm25.274 1.2l-12.76 6.65v.356l12.76-6.651z" color="#000" font-weight="400" font-family="sans-serif" letter-spacing="0" word-spacing="0" white-space="normal" overflow="visible" fill="#f2f2f2" fill-opacity=".357" stroke-width="1.067"/></g></svg>