<svg xmlns="http://www.w3.org/2000/svg" xmlns:xlink="http://www.w3.org/1999/xlink" height="24" viewBox="0 0 24 24" width="24"><title>Template icons dark</title><defs><linearGradient id="d"><stop offset="0" stop-color="#f7f7f7"/><stop offset="1" stop-color="#e8e8e8"/></linearGradient><linearGradient id="c"><stop offset="0" stop-color="#dedede"/><stop offset="1" stop-color="#fff" stop-opacity=".974"/></linearGradient><linearGradient id="b"><stop offset="0" stop-color="#ff053c"/><stop offset="1" stop-color="#0b31ff" stop-opacity=".974"/></linearGradient><linearGradient id="a"><stop offset="0" stop-color="#c62091"/><stop offset="1" stop-color="#9d2525"/></linearGradient><linearGradient xlink:href="#a" id="e" x1="24.535" y1="7.996" x2="24.705" y2="38.25" gradientUnits="userSpaceOnUse" gradientTransform="matrix(.3797 0 0 .3797 -53.144 -53.705)"/><linearGradient xlink:href="#d" id="f" gradientUnits="userSpaceOnUse" x1="272" y1="298" x2="272" y2="237.102" gradientTransform="matrix(.1875 0 0 .1875 -95.187 -95.709)"/></defs><g transform="translate(56 56)"><path style="isolation:auto;mix-blend-mode:normal;marker:none" d="M-32-44l-7.507 1.535 5.215 5.881-6.931-3.397.931 7.981L-44-39.032-47.708-32l.931-7.981-6.931 3.397 5.215-5.881L-56-44l7.507-1.535-5.215-5.881 6.931 3.397-.931-7.981L-44-48.968-40.292-56l-.931 7.981 6.931-3.397-5.215 5.881z" color="#000" display="block" overflow="visible" fill="#e8e8e8"/><path style="isolation:auto;mix-blend-mode:normal;marker:none" d="M-36.07-44A7.93 7.93 0 0 1-44-36.07 7.93 7.93 0 0 1-51.93-44 7.93 7.93 0 0 1-44-51.93 7.93 7.93 0 0 1-36.07-44z" color="#000" overflow="visible" fill="url(#e)" stroke="#fff" stroke-width=".442"/><path style="line-height:1000%;-inkscape-font-specification:Sagar" d="M-43.904-51.577c-.69 0-1.23.123-1.622.369-.392.245-.588.55-.588.915l.081.748 1.703 7.456h.67l1.723-7.456v-.648c0-.424-.19-.759-.568-1.004-.379-.253-.845-.38-1.399-.38zm-.122 10.242a1.689 1.689 0 0 0-1.689 1.689 1.689 1.689 0 0 0 1.69 1.689 1.689 1.689 0 0 0 1.688-1.69 1.689 1.689 0 0 0-1.689-1.688z" font-weight="400" font-family="Sagar" letter-spacing="0" word-spacing="0" fill="url(#f)" paint-order="stroke fill markers"/><circle style="isolation:auto;mix-blend-mode:normal;marker:none" cx="-44" cy="-44" r="8.74" color="#000" display="block" overflow="visible" fill-opacity=".157"/></g></svg>