<svg xmlns="http://www.w3.org/2000/svg" xmlns:xlink="http://www.w3.org/1999/xlink" height="24" viewBox="0 0 24 24" width="24"><title>Template icons dark</title><defs><linearGradient id="c"><stop offset="0" stop-color="#c3c2dd"/><stop offset="1" stop-color="#fff" stop-opacity=".962"/></linearGradient><linearGradient id="b"><stop offset="0" stop-color="#5a41e2"/><stop offset="1" stop-color="#4c9ce0" stop-opacity=".945"/></linearGradient><linearGradient id="a"><stop offset="0" stop-color="#fffefe"/><stop offset="1" stop-color="#fff" stop-opacity=".855"/></linearGradient><linearGradient gradientTransform="matrix(.27273 0 0 .27273 -87.636 -87.636)" xlink:href="#c" id="d" x1="171.402" y1="199.004" x2="171.402" y2="116" gradientUnits="userSpaceOnUse"/></defs><g transform="translate(56 56)"><rect ry="3.313" y="-56" x="-56" height="24" width="24" style="isolation:auto;mix-blend-mode:normal;marker:none" color="#000" display="block" overflow="visible" fill="url(#d)" stroke-width=".135" stroke-opacity=".104" paint-order="fill markers stroke"/><path style="line-height:23.4421711px;font-variant-ligatures:normal;font-variant-position:normal;font-variant-caps:normal;font-variant-numeric:normal;font-variant-alternates:normal;font-feature-settings:normal;text-indent:0;text-align:start;text-decoration-line:none;text-decoration-style:solid;text-decoration-color:#000;text-transform:none;text-orientation:mixed;shape-padding:0;isolation:auto;mix-blend-mode:normal" d="M-43.809-49.847l-.585.305-8.985 4.683v2.109l7.684 4.31v-2.685l-4.726-2.649 6.612-3.38zm1.703 1.577v2.684l4.725 2.65-6.612 3.38v2.693l9.57-4.988v-2.109z" color="#000" font-weight="400" font-family="sans-serif" letter-spacing="0" word-spacing="0" white-space="normal" overflow="visible" fill-opacity=".154" stroke-width=".8"/><path style="line-height:23.4421711px" d="M-44.209-48.116l-7.06 3.608 5.174 2.9v1.768l-6.883-3.861v-1.632l8.77-4.572z" font-weight="400" font-family="sans-serif" letter-spacing="0" word-spacing="0" fill="#483d8b" stroke="#483d8b" stroke-width=".8"/><path d="M-43.593-40.029l7.06-3.608-5.173-2.9v-1.767l6.883 3.861v1.632l-8.77 4.572z" style="line-height:23.4421711px" font-weight="400" font-size="20.178" font-family="sans-serif" letter-spacing="0" word-spacing="0" fill="#688ccb" stroke="#688ccb" stroke-width=".8"/></g></svg>