<svg xmlns="http://www.w3.org/2000/svg" xmlns:xlink="http://www.w3.org/1999/xlink" height="64" viewBox="0 0 64 64" width="64"><title>Template icons dark</title><defs><linearGradient id="d"><stop offset="0" stop-color="#f7f7f7"/><stop offset="1" stop-color="#e8e8e8"/></linearGradient><linearGradient id="c"><stop offset="0" stop-color="#dedede"/><stop offset="1" stop-color="#fff" stop-opacity=".974"/></linearGradient><linearGradient id="b"><stop offset="0" stop-color="#ff053c"/><stop offset="1" stop-color="#0b31ff" stop-opacity=".974"/></linearGradient><linearGradient id="a"><stop offset="0" stop-color="#c62091"/><stop offset="1" stop-color="#9d2525"/></linearGradient><linearGradient xlink:href="#a" id="e" x1="24.535" y1="7.996" x2="24.705" y2="38.25" gradientUnits="userSpaceOnUse" gradientTransform="matrix(1.01255 0 0 1.01255 55.616 54.12)"/><linearGradient gradientTransform="matrix(.47513 0 0 .47513 3.979 3.979)" xlink:href="#b" id="f" x1="122" y1="183" x2="196" y2="142" gradientUnits="userSpaceOnUse"/><linearGradient xlink:href="#d" id="g" gradientUnits="userSpaceOnUse" x1="272" y1="298" x2="272" y2="237.102" gradientTransform="matrix(.5 0 0 .5 -56.5 -57.89)"/></defs><g transform="translate(-48 -48)"><path style="isolation:auto;mix-blend-mode:normal;marker:none" d="M112 80l-20.018 4.093 13.907 15.684-18.484-9.06L89.89 112 80 93.247 70.111 112l2.484-21.283-18.484 9.06 13.907-15.684L48 80l20.018-4.093-13.907-15.684 18.484 9.06L70.11 48 80 66.753 89.889 48l-2.484 21.283 18.484-9.06-13.907 15.684z" color="#000" display="block" overflow="visible" fill-opacity=".267"/><path style="isolation:auto;mix-blend-mode:normal;marker:none" d="M111 80l-19.393 3.966 13.473 15.193-17.906-8.777L89.58 111 80 92.833 70.42 111l2.406-20.618-17.906 8.777 13.473-15.193L49 80l19.393-3.966L54.92 60.841l17.906 8.777L70.42 49 80 67.167 89.58 49l-2.406 20.618 17.906-8.777-13.473 15.193z" color="#000" display="block" overflow="visible" fill="#fff" fill-opacity=".984"/><path style="isolation:auto;mix-blend-mode:normal;marker:none" d="M101.147 80A21.147 21.147 0 0 1 80 101.147 21.147 21.147 0 0 1 58.853 80 21.147 21.147 0 0 1 80 58.853 21.147 21.147 0 0 1 101.147 80z" color="#000" overflow="visible" fill="url(#e)" stroke="#fff" stroke-width="1.179"/><path style="isolation:auto;mix-blend-mode:normal;marker:none" d="M101.147 80A21.147 21.147 0 0 1 80 101.147 21.147 21.147 0 0 1 58.853 80 21.147 21.147 0 0 1 80 58.853 21.147 21.147 0 0 1 101.147 80z" color="#000" overflow="visible" opacity=".109" fill="url(#f)" stroke="#fff" stroke-width="1.179"/><path style="isolation:auto;mix-blend-mode:normal;marker:none" d="M100.567 79.246A20.577 21.147 0 0 1 80 100.196a20.577 21.147 0 0 1-20.567-20.868 20.577 21.147 0 0 0-.01.197A20.577 21.147 0 0 0 80 100.672a20.577 21.147 0 0 0 20.577-21.147 20.577 21.147 0 0 0-.01-.279z" color="#000" overflow="visible" fill-opacity=".297"/><path d="M100.662 80.89A20.672 21.147 0 0 0 80 59.938a20.672 21.147 0 0 0-20.662 20.869 20.672 21.147 0 0 1-.01-.197A20.672 21.147 0 0 1 80 59.464a20.672 21.147 0 0 1 20.672 21.147 20.672 21.147 0 0 1-.01.278z" style="isolation:auto;mix-blend-mode:normal;marker:none" color="#000" overflow="visible" fill="#242424" fill-opacity=".471"/><path style="line-height:1000%;-inkscape-font-specification:Sagar" d="M80.421 58.677c-1.958 0-3.59.34-4.862 1.136-1.236.775-2.042 1.964-2.042 3.298v.055l.228 2.107L78.48 86h1.555c-3.004.036-5.453 2.49-5.454 5.503 0 3.034 2.482 5.516 5.516 5.516s5.516-2.482 5.516-5.516c0-3.012-2.45-5.467-5.453-5.503h1.714l4.803-20.78V63.38c0-1.429-.74-2.722-1.968-3.522-1.198-.8-2.658-1.18-4.288-1.18z" font-weight="400" font-family="Sagar" letter-spacing="0" word-spacing="0" fill-opacity=".136" paint-order="stroke fill markers"/><path style="line-height:1000%;-inkscape-font-specification:Sagar" d="M80.256 59.796c-1.838 0-3.28.327-4.325.982-1.046.655-1.568 1.468-1.568 2.44l.216 1.995 4.542 19.882h1.783L85.5 65.213v-1.727c0-1.131-.504-2.024-1.514-2.679-1.009-.674-2.252-1.011-3.73-1.011zm-.324 27.31a4.504 4.504 0 0 0-4.504 4.504 4.504 4.504 0 0 0 4.504 4.504 4.504 4.504 0 0 0 4.504-4.504 4.504 4.504 0 0 0-4.504-4.504z" font-weight="400" font-family="Sagar" letter-spacing="0" word-spacing="0" fill="url(#g)" paint-order="stroke fill markers"/><circle style="isolation:auto;mix-blend-mode:normal;marker:none" cx="80" cy="80" r="22.331" color="#000" display="block" overflow="visible" fill-opacity=".157"/><circle style="isolation:auto;mix-blend-mode:normal;marker:none" cx="80" cy="80" r="14.633" color="#000" overflow="visible" fill="none" stroke="#fff" stroke-width=".73" stroke-linejoin="round" stroke-dasharray=".7304999,4.38299935" stroke-opacity=".292"/></g></svg>