<svg xmlns="http://www.w3.org/2000/svg" xmlns:xlink="http://www.w3.org/1999/xlink" height="64" viewBox="0 0 64 64" width="64"><title>Template icons dark</title><defs><linearGradient id="c"><stop offset="0" stop-color="#c3c2dd"/><stop offset="1" stop-color="#fff" stop-opacity=".962"/></linearGradient><linearGradient id="b"><stop offset="0" stop-color="#5a41e2"/><stop offset="1" stop-color="#4c9ce0" stop-opacity=".945"/></linearGradient><linearGradient id="a"><stop offset="0" stop-color="#fffefe"/><stop offset="1" stop-color="#fff" stop-opacity=".855"/></linearGradient><linearGradient gradientTransform="matrix(.70455 0 0 .70455 -32.727 -32.727)" xlink:href="#c" id="d" x1="171.402" y1="199.004" x2="171.402" y2="116" gradientUnits="userSpaceOnUse"/></defs><g transform="translate(-48 -48)"><rect style="isolation:auto;mix-blend-mode:normal;marker:none" width="64" height="64" x="48" y="48" ry="8.833" color="#000" display="block" overflow="visible" fill-opacity=".126" stroke-width=".36" stroke-opacity=".104" paint-order="fill markers stroke"/><rect ry="8.557" y="49" x="49" height="62" width="62" style="isolation:auto;mix-blend-mode:normal;marker:none" color="#000" display="block" overflow="visible" fill="url(#d)" stroke-width=".349" stroke-opacity=".104" paint-order="fill markers stroke"/><path style="line-height:23.4421711px;font-variant-ligatures:normal;font-variant-position:normal;font-variant-caps:normal;font-variant-numeric:normal;font-variant-alternates:normal;font-feature-settings:normal;text-indent:0;text-align:start;text-decoration-line:none;text-decoration-style:solid;text-decoration-color:#000;text-transform:none;text-orientation:mixed;shape-padding:0;isolation:auto;mix-blend-mode:normal" d="M80.51 63.918l-1.56.813-23.96 12.488v5.624l20.49 11.493v-7.158l-12.602-7.066L80.51 71.1zm4.54 4.206v7.158l12.601 7.065-17.633 9.013v7.182l25.52-13.302v-5.623z" color="#000" font-weight="400" font-family="sans-serif" letter-spacing="0" word-spacing="0" white-space="normal" overflow="visible" fill-opacity=".154" stroke-width="2.133"/><path style="line-height:23.4421711px" d="M79.444 69.025l-18.826 9.622 13.795 7.734v4.712L56.057 80.796v-4.352l23.387-12.19z" font-weight="400" font-family="sans-serif" letter-spacing="0" word-spacing="0" fill="#483d8b" stroke="#483d8b" stroke-width="2.133"/><path d="M81.085 90.59l18.826-9.621-13.795-7.735v-4.712l18.356 10.297v4.352L81.085 95.36z" style="line-height:23.4421711px" font-weight="400" font-size="20.178" font-family="sans-serif" letter-spacing="0" word-spacing="0" fill="#688ccb" stroke="#688ccb" stroke-width="2.133"/><path style="isolation:auto;mix-blend-mode:normal;marker:none" d="M49.022 101.74v.703c0 4.724 3.87 8.527 8.598 8.527h44.76c4.727 0 8.63-3.803 8.63-8.527v-.702c0 4.724-3.903 8.3-8.63 8.3H57.62c-4.727 0-8.598-3.576-8.598-8.3z" color="#000" display="block" overflow="visible" fill="#f2f2f8" stroke-width=".348" stroke-opacity=".104" paint-order="fill markers stroke"/><path style="line-height:23.4421711px;font-variant-ligatures:normal;font-variant-position:normal;font-variant-caps:normal;font-variant-numeric:normal;font-variant-alternates:normal;font-feature-settings:normal;text-indent:0;text-align:start;text-decoration-line:none;text-decoration-style:solid;text-decoration-color:#000;text-transform:none;text-orientation:mixed;shape-padding:0;isolation:auto;mix-blend-mode:normal" d="M80.51 68.967l-17.632 9.012.664.372 16.968-8.673zm4.54 4.182v.71l11.937 6.694.664-.34zm-30.06 7.56v.712l20.49 11.493v-.711zm50.549 2.398L80.018 96.408v.711l25.52-13.3z" color="#000" font-weight="400" font-family="sans-serif" letter-spacing="0" word-spacing="0" white-space="normal" overflow="visible" fill="#f2f2f2" fill-opacity=".357" stroke-width="2.133"/></g></svg>