<svg xmlns="http://www.w3.org/2000/svg" xmlns:xlink="http://www.w3.org/1999/xlink" height="48" viewBox="0 0 48 48" width="48"><defs><linearGradient id="g"><stop offset="0" stop-color="#c0ebd9"/><stop offset=".337" stop-color="#b7d6e9" stop-opacity=".604"/><stop offset=".537" stop-color="#9fbaf4" stop-opacity=".282"/><stop offset="1" stop-color="#48d5ab"/></linearGradient><linearGradient id="f"><stop offset="0" stop-color="#00f6e3"/><stop offset="1" stop-color="#276c82"/></linearGradient><linearGradient id="e"><stop offset="0"/><stop offset="1" stop-opacity="0"/></linearGradient><linearGradient id="d"><stop offset="0" stop-color="#176875"/><stop offset="1" stop-color="#186a77"/></linearGradient><linearGradient id="b"><stop offset="0" stop-color="#b6b6b6"/><stop offset=".482" stop-color="#fff"/><stop offset="1" stop-color="#cfcfcf"/></linearGradient><linearGradient id="a"><stop offset="0" stop-color="#165dc2"/><stop offset="1" stop-color="#1680c2"/></linearGradient><linearGradient id="c"><stop offset="0" stop-color="#d0611f"/><stop offset="1" stop-color="#f77a2c"/></linearGradient><linearGradient xlink:href="#f" id="i" x1="4.907" y1="28.587" x2="33.227" y2="42.453" gradientUnits="userSpaceOnUse"/><linearGradient xlink:href="#g" id="h" x1="44" y1="27.467" x2="6.987" y2="17.813" gradientUnits="userSpaceOnUse"/></defs><path d="M43.296 13.99a21.738 21.738 0 0 0-29.307-9.286 21.738 21.738 0 0 0-9.285 29.307 21.738 21.738 0 0 0 29.307 9.285 21.738 21.738 0 0 0 9.285-29.307zM31.35 20.185a8.281 8.281 0 0 1-3.537 11.165 8.281 8.281 0 0 1-11.165-3.537 8.281 8.281 0 0 1 3.537-11.165 8.281 8.281 0 0 1 11.165 3.537z" opacity=".99" fill="url(#h)" stroke="#bfc1bd" stroke-width=".518"/><path d="M44.71 30.561L31.89 26.5a8.281 8.281 0 0 1-4.076 4.85 8.281 8.281 0 0 1-11.165-3.536 8.281 8.281 0 0 1-.54-6.314L3.291 17.439A21.738 21.738 0 0 0 4.704 34.01a21.738 21.738 0 0 0 29.307 9.285A21.738 21.738 0 0 0 44.709 30.56z" opacity=".99" fill="url(#i)" stroke="#a8a4a3" stroke-width=".518"/><path d="M31.075 3.545A21.738 21.738 0 0 0 3.658 17.45l12.79 4.182a8.281 8.281 0 0 1 10.445-5.297l4.182-12.79z" opacity=".99" fill="#fff" fill-opacity=".265" stroke-width=".5"/><path d="M34.686 43.025a21.738 21.738 0 0 0 8.352-29.585l-11.742 6.572a8.281 8.281 0 0 1-3.182 11.27l6.572 11.743z" opacity=".99" fill="#fff" fill-opacity=".162" stroke-width=".5"/><ellipse style="isolation:auto;mix-blend-mode:normal" cx="24" cy="24" rx="10.062" ry="9.972" color="#000" overflow="visible" fill="none" stroke="#fff" stroke-width="2.631" stroke-opacity=".201"/><text style="line-height:1000%" x="-27.688" y="35.179" transform="rotate(-90)" font-size="3.167" font-family="sans-serif" letter-spacing="0" word-spacing="0" fill="#fff"><tspan x="-27.688" y="35.179">Disck</tspan></text></svg>