<svg xmlns="http://www.w3.org/2000/svg" xmlns:xlink="http://www.w3.org/1999/xlink" width="128" height="128" viewBox="0 0 33.866666 33.866666"><defs><linearGradient id="c"><stop offset="0" stop-opacity=".453"/><stop offset="1" stop-color="#fff" stop-opacity=".795"/></linearGradient><linearGradient id="b"><stop offset="0" stop-color="#d1d1d1"/><stop offset="1" stop-color="#fff"/></linearGradient><linearGradient id="a"><stop offset="0" stop-color="#a1acb6"/><stop offset="1" stop-color="#dfdfdf" stop-opacity=".989"/></linearGradient><linearGradient xlink:href="#a" id="d" x1="17.468" y1="294.726" x2="17.468" y2="265.596" gradientUnits="userSpaceOnUse"/><linearGradient xlink:href="#b" id="f" x1="17.124" y1="293.906" x2="17.124" y2="265.695" gradientUnits="userSpaceOnUse"/><linearGradient xlink:href="#c" id="e" x1="16.953" y1="265.729" x2="16.953" y2="293.87" gradientUnits="userSpaceOnUse"/></defs><g transform="translate(0 -263.133)"><rect ry="6.246" y="263.8" x=".666" height="32.534" width="32.534" style="isolation:auto;mix-blend-mode:normal;marker:none" color="#000" display="block" overflow="visible" fill-opacity=".079" stroke-width=".19" stroke-opacity=".632"/><rect style="isolation:auto;mix-blend-mode:normal;marker:none" width="31.469" height="31.469" x="1.199" y="264.332" ry="6.042" color="#000" display="block" overflow="visible" fill="url(#d)" stroke-width=".183" stroke-opacity=".632"/><path d="M21.583 293.044c-.204-.037-.494-.275-.752-.62-.072-.095-.28-.394-.464-.662-.55-.806-.852-1.181-1.212-1.504-.928-.833-2.002-.924-3.242-.275-.485.253-.945.581-1.84 1.314-.824.674-1.231.962-1.565 1.107-.274.118-.418.147-.68.134-.28-.013-.403-.056-.555-.194-.277-.253-.352-.725-.283-1.788l.049-.755c.014-.227 0-.259-.068-.142a.983.983 0 0 1-.117.153c-.074.077-.085.081-.217.081-.171 0-.362-.048-.53-.132-.432-.219-.513-.648-.208-1.107.044-.065.197-.26.342-.434.424-.51.6-.801.701-1.169.04-.144.047-.226.048-.59.001-.488-.015-.585-.187-1.142-.171-.55-.199-.715-.2-1.184 0-.345.007-.426.048-.573.089-.325.21-.535.653-1.132.668-.9.994-1.513 1.228-2.304.175-.594.205-.778.305-1.868.169-1.842.254-3.654.254-5.4 0-1.588-.062-2.47-.21-2.97-.009-.027-.006-.05.005-.05.01 0 .126.07.255.154.988.643 2.39 1.918 3.643 3.312a30.914 30.914 0 0 1 3.319 4.437c.075.123.168.249.205.28.494.418 1.391.01 1.63-.74.044-.141.047-.193.046-.685-.002-.57-.027-.785-.132-1.147-.064-.223-.137-.37-.24-.485-.102-.112-.205-.164-.386-.193-.262-.042-.41-.106-.793-.343-.656-.405-.853-.441-1.5-.277-.259.066-.345.08-.482.073-.23-.01-.322-.074-.442-.31-.082-.161-.087-.18-.087-.368 0-.18.007-.21.065-.315.168-.304.624-.549 1.299-.7.11-.024.21-.053.222-.065.013-.013-.02-.062-.09-.134-.505-.521-.946-1.252-1.3-2.153-.454-1.158-.41-1.63.179-1.92a.561.561 0 0 1 .332-.082c.147 0 .176.007.256.062.133.092.263.3.488.785.112.239.244.505.295.592.191.326.503.688.552.639.01-.01-.025-.188-.081-.408-.236-.915-.295-1.372-.256-1.999.018-.299.034-.416.069-.51.098-.26.338-.366.727-.323.497.056.649.306.841 1.39.092.517.125.663.198.89.085.264.245.544.312.544.017 0 .031-.004.031-.009 0-.04.275-1.027.328-1.177.102-.293.245-.553.39-.71.33-.36.926-.475 1.203-.232.241.211.225.601-.051 1.226-.234.528-.3.776-.32 1.184-.015.34.018.584.164 1.228.163.71.185.964.122 1.356-.09.547-.264.849-.694 1.195-.322.26-.433.384-.536.6-.144.301-.157.427-.152 1.487.007 1.431-.037 1.7-.358 2.196-.441.682-.593 1.69-.39 2.588.032.143.117.387.23.66.876 2.127 1.385 4.137 1.574 6.224.12 1.312.084 2.743-.09 3.637-.129.667-.373 1.175-.687 1.428-.21.17-.542.29-.856.314-.082.006-.178.014-.213.018-.036.003-.1 0-.142-.008zm.64-.753c.46-.157.626-.994.697-3.495.063-2.243-.598-4.95-1.967-8.05-.228-.516-.76-1.6-1.019-2.075-.265-.487-.692-1.213-.764-1.299l-.057-.068-.217.026c-.279.032-.297.04-.281.111.088.4.1.489.1.744 0 .73-.256 1.357-.77 1.877-.255.26-.497.435-.818.597-.849.424-1.787.452-2.55.076a2.335 2.335 0 0 1-.85-.696l-.068-.086-.112.076c-.083.056-.118.096-.133.152a205.94 205.94 0 0 0-.576 2.716c-.602 2.912-.97 5.088-1.134 6.692-.028.275-.038.567-.039 1.054 0 .732.014.846.13 1.044.067.114.148.15.31.134.352-.033.663-.244 1.6-1.09.7-.63 1.022-.89 1.447-1.17.58-.38 1.101-.598 1.68-.703a3.85 3.85 0 0 1 1.048-.001c.694.125 1.328.496 1.944 1.136.34.353.59.677 1.116 1.448.362.529.519.727.648.82.085.062.1.065.31.065.148 0 .255-.011.326-.035zm-10.647-6.673c.007-.033.057-.314.112-.624.054-.311.148-.815.208-1.12.12-.605.137-.807.077-.898-.06-.093-.118-.074-.275.09-.282.295-.523.837-.557 1.254-.018.219.045.492.219.945.08.209.15.387.156.396.021.034.048.015.06-.043zm4.586-5.157c.232-.04.735-.196.902-.28.09-.045.223-.127.297-.183.186-.14.44-.418.512-.558.143-.283.289-.693.323-.91.032-.208.013-.664-.035-.837-.119-.43-.398-.757-.825-.969-.56-.276-1.184-.3-1.845-.07a3.218 3.218 0 0 0-1.21.745c-.237.238-.38.454-.468.707-.052.15-.06.208-.06.424-.002 1.304 1.067 2.16 2.41 1.93z" fill="none" stroke="#fff" stroke-width=".81622425" stroke-opacity=".679"/><path d="M16.716 278.295a1.257 1.275 0 0 1-1.257 1.274 1.257 1.275 0 0 1-1.257-1.274 1.257 1.275 0 0 1 1.257-1.275 1.257 1.275 0 0 1 1.257 1.275z" style="isolation:auto;mix-blend-mode:normal;marker:none" color="#000" display="block" overflow="visible" fill="#fff" stroke-width="1.315" stroke-opacity=".632"/><path d="M19.051 276.931l-.226.027c-.291.034-.31.042-.293.117.091.42.104.513.104.78 0 .767-.267 1.425-.802 1.972a3.04 3.04 0 0 1-.855.626c-.884.445-1.863.475-2.66.08a2.44 2.44 0 0 1-.886-.73l-.07-.091-.117.08c-.087.059-.123.1-.139.16a217.12 217.12 0 0 0-.6 2.85c-.628 3.058-1.013 5.341-1.183 7.025-.03.289-.04.596-.04 1.107-.001.768.014.888.135 1.096.07.12.154.157.323.14.367-.034.69-.256 1.67-1.144.728-.661 1.064-.935 1.508-1.228.604-.398 1.148-.628 1.752-.737.279-.051.82-.052 1.093-.002.724.131 1.386.52 2.027 1.193.354.37.615.71 1.165 1.52.377.555.54.763.675.861.089.065.104.068.324.068.154 0 .266-.012.34-.037.478-.164.652-1.043.726-3.67.066-2.353-.624-5.196-2.052-8.45a40.882 40.882 0 0 0-1.063-2.178c-.276-.51-.722-1.273-.797-1.363z" style="isolation:auto;mix-blend-mode:normal;marker:none" color="#000" overflow="visible" fill="#f3f3f3" fill-opacity=".989" stroke="#fff" stroke-width=".067776" stroke-opacity=".632"/><path d="M15.944 276.073a2.473 2.315 0 0 0-2.473 2.315 2.473 2.315 0 0 0 2.473 2.314 2.473 2.315 0 0 0 2.474-2.314 2.473 2.315 0 0 0-2.474-2.315zm-.91 1.16a.18.18 0 0 1 .107.023c.15.1-.036.391-.344.537-.158.074-.258.08-.318.02-.055-.055-.055-.094 0-.21.094-.19.374-.365.555-.37z" fill="#f85a5a" stroke-width=".082"/><path d="M15.944 276.073a2.473 2.315 0 0 0-2.473 2.315 2.473 2.315 0 0 0 2.473 2.314 2.473 2.315 0 0 0 2.474-2.314 2.473 2.315 0 0 0-2.474-2.315zm.381.45c.359.001.728.09.938.222.084.054.1.077.132.19.091.328.102.805.027 1.16-.04.19-.181.555-.278.716-.053.089-.12.153-.267.26-.28.203-.395.308-.565.517-.122.148-.174.195-.281.246-.15.072-.417.157-.607.194-.179.035-.6.046-.772.02-.168-.025-.258-.082-.435-.275-.343-.375-.53-1.054-.424-1.55.134-.633.853-1.284 1.736-1.572.3-.097.5-.13.796-.128z" fill="#f61111" stroke-width=".082"/><path d="M21.583 293.044c-.204-.037-.494-.275-.752-.62-.072-.095-.28-.394-.464-.662-.55-.806-.852-1.181-1.212-1.504-.928-.833-2.002-.924-3.242-.275-.485.253-.945.581-1.84 1.314-.824.674-1.231.962-1.565 1.107-.274.118-.418.147-.68.134-.28-.013-.403-.056-.555-.194-.277-.253-.352-.725-.283-1.788l.049-.755c.014-.227 0-.259-.068-.142a.983.983 0 0 1-.117.153c-.074.077-.085.081-.217.081-.171 0-.362-.048-.53-.132-.432-.219-.513-.648-.208-1.107.044-.065.197-.26.342-.434.424-.51.6-.801.701-1.169.04-.144.047-.226.048-.59.001-.488-.015-.585-.187-1.142-.171-.55-.199-.715-.2-1.184 0-.345.007-.426.048-.573.089-.325.21-.535.653-1.132.668-.9.994-1.513 1.228-2.304.175-.594.205-.778.305-1.868.169-1.842.254-3.654.254-5.4 0-1.588-.062-2.47-.21-2.97-.009-.027-.006-.05.005-.05.01 0 .126.07.255.154.988.643 2.39 1.918 3.643 3.312a30.914 30.914 0 0 1 3.319 4.437c.075.123.168.249.205.28.494.418 1.391.01 1.63-.74.044-.141.047-.193.046-.685-.002-.57-.027-.785-.132-1.147-.064-.223-.137-.37-.24-.485-.102-.112-.205-.164-.386-.193-.262-.042-.41-.106-.793-.343-.656-.405-.853-.441-1.5-.277-.259.066-.345.08-.482.073-.23-.01-.322-.074-.442-.31-.082-.161-.087-.18-.087-.368 0-.18.007-.21.065-.315.168-.304.624-.549 1.299-.7.11-.024.21-.053.222-.065.013-.013-.02-.062-.09-.134-.505-.521-.946-1.252-1.3-2.153-.454-1.158-.41-1.63.179-1.92a.561.561 0 0 1 .332-.082c.147 0 .176.007.256.062.133.092.263.3.488.785.112.239.244.505.295.592.191.326.503.688.552.639.01-.01-.025-.188-.081-.408-.236-.915-.295-1.372-.256-1.999.018-.299.034-.416.069-.51.098-.26.338-.366.727-.323.497.056.649.306.841 1.39.092.517.125.663.198.89.085.264.245.544.312.544.017 0 .031-.004.031-.009 0-.04.275-1.027.328-1.177.102-.293.245-.553.39-.71.33-.36.926-.475 1.203-.232.241.211.225.601-.051 1.226-.234.528-.3.776-.32 1.184-.015.34.018.584.164 1.228.163.71.185.964.122 1.356-.09.547-.264.849-.694 1.195-.322.26-.433.384-.536.6-.144.301-.157.427-.152 1.487.007 1.431-.037 1.7-.358 2.196-.441.682-.593 1.69-.39 2.588.032.143.117.387.23.66.876 2.127 1.385 4.137 1.574 6.224.12 1.312.084 2.743-.09 3.637-.129.667-.373 1.175-.687 1.428-.21.17-.542.29-.856.314-.082.006-.178.014-.213.018-.036.003-.1 0-.142-.008zm.64-.753c.46-.157.626-.994.697-3.495.063-2.243-.598-4.95-1.967-8.05-.228-.516-.76-1.6-1.019-2.075-.265-.487-.692-1.213-.764-1.299l-.057-.068-.217.026c-.279.032-.297.04-.281.111.088.4.1.489.1.744 0 .73-.256 1.357-.77 1.877-.255.26-.497.435-.818.597-.849.424-1.787.452-2.55.076a2.335 2.335 0 0 1-.85-.696l-.068-.086-.112.076c-.083.056-.118.096-.133.152a205.94 205.94 0 0 0-.576 2.716c-.602 2.912-.97 5.088-1.134 6.692-.028.275-.038.567-.039 1.054 0 .732.014.846.13 1.044.067.114.148.15.31.134.352-.033.663-.244 1.6-1.09.7-.63 1.022-.89 1.447-1.17.58-.38 1.101-.598 1.68-.703a3.85 3.85 0 0 1 1.048-.001c.694.125 1.328.496 1.944 1.136.34.353.59.677 1.116 1.448.362.529.519.727.648.82.085.062.1.065.31.065.148 0 .255-.011.326-.035zm-10.647-6.673c.007-.033.057-.314.112-.624.054-.311.148-.815.208-1.12.12-.605.137-.807.077-.898-.06-.093-.118-.074-.275.09-.282.295-.523.837-.557 1.254-.018.219.045.492.219.945.08.209.15.387.156.396.021.034.048.015.06-.043zm4.586-5.157c.232-.04.735-.196.902-.28.09-.045.223-.127.297-.183.186-.14.44-.418.512-.558.143-.283.289-.693.323-.91.032-.208.013-.664-.035-.837-.119-.43-.398-.757-.825-.969-.56-.276-1.184-.3-1.845-.07a3.218 3.218 0 0 0-1.21.745c-.237.238-.38.454-.468.707-.052.15-.06.208-.06.424-.002 1.304 1.067 2.16 2.41 1.93z" fill="#16172b" stroke-width=".082"/><rect ry="5.256" y="265.761" x="2.482" height="28.626" width="28.903" style="isolation:auto;mix-blend-mode:normal;marker:none" color="#000" display="block" overflow="visible" fill="none" fill-opacity=".989" stroke="url(#e)" stroke-width=".444"/><rect style="isolation:auto;mix-blend-mode:normal;marker:none" width="30.125" height="30.124" x="1.871" y="265.004" ry="5.397" color="#000" display="block" overflow="visible" fill="none" stroke="url(#f)" stroke-width="1.323" stroke-linecap="square" stroke-dashoffset="5.292" stroke-opacity=".953"/></g></svg>