<svg xmlns="http://www.w3.org/2000/svg" xmlns:xlink="http://www.w3.org/1999/xlink" height="48" viewBox="0 0 48 48" width="48"><defs><linearGradient id="g"><stop offset="0" stop-color="#0271f1" stop-opacity=".941"/><stop offset="1" stop-color="#0a84ff" stop-opacity=".788"/></linearGradient><linearGradient id="f"><stop offset="0" stop-color="#c4d4e6"/><stop offset="1" stop-color="#ecf4fa"/></linearGradient><linearGradient id="e"><stop offset="0"/><stop offset="1" stop-opacity="0"/></linearGradient><linearGradient id="d"><stop offset="0" stop-color="#176875"/><stop offset="1" stop-color="#186a77"/></linearGradient><linearGradient id="b"><stop offset="0" stop-color="#b6b6b6"/><stop offset=".482" stop-color="#fff"/><stop offset="1" stop-color="#cfcfcf"/></linearGradient><linearGradient id="a"><stop offset="0" stop-color="#165dc2"/><stop offset="1" stop-color="#1680c2"/></linearGradient><linearGradient id="c"><stop offset="0" stop-color="#d0611f"/><stop offset="1" stop-color="#f77a2c"/></linearGradient><linearGradient xlink:href="#f" id="j" x1="14.274" y1="28.886" x2="14.274" y2="8.371" gradientUnits="userSpaceOnUse"/><linearGradient xlink:href="#g" id="k" x1="33.639" y1="34.952" x2="33.639" y2="20.244" gradientUnits="userSpaceOnUse"/><filter id="h" x="-.023" width="1.045" y="-.026" height="1.051" color-interpolation-filters="sRGB"><feGaussianBlur stdDeviation=".277"/></filter><filter id="i" x="-.023" width="1.045" y="-.026" height="1.051" color-interpolation-filters="sRGB"><feGaussianBlur stdDeviation=".219"/></filter></defs><g color="#000" stroke-width=".5"><path d="M4.633 10h25.152a1.93 1.93 0 0 1 1.935 1.935v17.413a1.93 1.93 0 0 1-1.935 1.934H8.722l-6.516 4.651.492-6.585V11.935A1.93 1.93 0 0 1 4.633 10z" style="isolation:auto;mix-blend-mode:normal;marker:none" overflow="visible" fill-opacity=".095" filter="url(#h)" enable-background="accumulate"/><path style="isolation:auto;mix-blend-mode:normal;marker:none" d="M41.698 20.208H21.854c-.846 0-1.527.68-1.527 1.526v13.739c0 .845.681 1.526 1.527 1.526h16.619l5.14 3.67-.388-5.196V21.734c0-.846-.68-1.526-1.527-1.526z" overflow="visible" fill-opacity=".09" enable-background="accumulate" filter="url(#i)"/><path style="isolation:auto;mix-blend-mode:normal;marker:none" d="M4.633 8h25.152a1.93 1.93 0 0 1 1.935 1.935v17.413a1.93 1.93 0 0 1-1.935 1.934H8.722l-6.516 4.651.492-6.585V9.935A1.93 1.93 0 0 1 4.633 8z" overflow="visible" fill="url(#j)" enable-background="accumulate"/><path d="M41.698 18.434H21.854c-.846 0-1.527.68-1.527 1.526V33.7c0 .846.681 1.526 1.527 1.526h16.619l5.14 3.67-.388-5.196V19.96c0-.845-.68-1.526-1.527-1.526z" style="isolation:auto;mix-blend-mode:normal;marker:none" overflow="visible" fill="url(#k)" enable-background="accumulate"/></g></svg>