<svg xmlns="http://www.w3.org/2000/svg" width="128" height="128" viewBox="0 0 33.866666 33.866666"><g transform="translate(0 -263.133)"><path d="M14.477 296.994c-2.033-.066-3.736-.227-4.275-.406-.207-.069-.268-.181-.137-.251.215-.115 1.04-.242 2.164-.332 1.39-.11 2.344-.14 4.704-.14s3.315.03 4.704.14c1.124.09 1.95.217 2.165.332.13.07.07.182-.137.25-.998.332-5.433.528-9.188.407z" fill-opacity=".379" stroke-width=".035"/><path style="isolation:auto;mix-blend-mode:normal;marker:none" d="M16.947 264.716c-.048.001-1.66 1.565-2.268 2.199-2.416 2.52-4.063 4.742-5.187 6.996-.532 1.068-.957 2.198-1.151 3.064-.034.151-.076.294-.094.318a2.019 2.019 0 0 1-.266.198c-.4.266-.725.68-.904 1.152a3.87 3.87 0 0 1-.107.252c-.005-.005-.01-.007-.012 0-.306.33-.653.773-.877 1.115-.652.993-1.075 2.11-1.276 3.368-.089.552-.089 2.04 0 2.593.156.977.468 1.932.888 2.714.2.373.402.7.444.716.015.007.028.053.028.104l.002.003c.028.244.1.49.196.652.087.146.093.182.096.584.003.471.054.717.223 1.09a2.51 2.51 0 0 0 1.838 1.427c.338.061.377.063.535.018.421-.116.677-.731.462-1.11-.091-.161-.316-.309-.557-.365-.434-.103-.535-.142-.697-.27-.247-.195-.366-.451-.366-.79 0-.202.018-.293.082-.424a1.03 1.03 0 0 1 .93-.583c.259.001.42.062.667.25.281.215.387.256.653.257.333 0 .513-.098.643-.355a.753.753 0 0 0 .013-.705c-.19-.403-.83-.78-1.518-.897a1.937 1.937 0 0 0-.702-.015c-.325.037-.38.036-.474-.013a2.295 2.295 0 0 0-.476-.146c-.1-.02-.125-.06-.292-.4a6.802 6.802 0 0 1-.708-3.039c0-.806.114-1.478.382-2.256.147-.427.462-1.105.514-1.105.018 0 .021-.019.007-.042l-.008-.03c.017.014.035.03.052.042l.367.246c.13.086.241.163.25.171.007.008.074.258.15.556a11.214 11.214 0 0 0 1.407 3.316c.402.635.77 1.097 1.389 1.743.303.316.352.385.406.566.075.249.28.641.495.943.2.283.77.87 1.104 1.141.278.225.916.66 1.228.839.426.242 1.137.481 1.707.574.426.07 1.295.045 1.72-.048.605-.132 1.447-.466 1.7-.673.06-.049.262-.189.449-.311.972-.636 1.861-1.636 2.1-2.36.047-.147.128-.245.522-.637a10.18 10.18 0 0 0 2.165-3.117c.328-.724.541-1.385.805-2.496.009-.037.163-.175.314-.296.197-.148.272-.188.307-.159.079.066.378.715.52 1.13.27.785.384 1.455.384 2.263a6.802 6.802 0 0 1-.707 3.038l-.182.372a2.724 2.724 0 0 0-.577.158c-.145.064-.18.066-.502.028a1.888 1.888 0 0 0-.683.017c-.688.116-1.328.494-1.518.897a.753.753 0 0 0 .013.705c.13.257.31.356.642.355.267-.001.372-.042.654-.257.246-.188.408-.249.667-.25.395-.002.751.222.93.584.064.13.081.221.081.423 0 .339-.118.595-.366.79-.161.128-.263.167-.697.27-.24.056-.465.204-.556.364-.208.368.016.95.424 1.1a.74.74 0 0 0 .321.028c.923-.095 1.673-.606 2.058-1.403.2-.415.252-.65.255-1.166.002-.414.008-.46.095-.634a2.43 2.43 0 0 0 .154-.478.584.584 0 0 1 .043-.14c.033-.027.322-.505.475-.789.405-.747.733-1.748.887-2.715.088-.553.088-2.04 0-2.593-.273-1.711-1.006-3.258-2.081-4.396a1.475 1.475 0 0 1-.24-.382 2.614 2.614 0 0 0-.339-.588 2.228 2.228 0 0 0-.518-.5 2.306 2.306 0 0 1-.245-.188 6.49 6.49 0 0 1-.15-.533c-.816-3.194-3.192-6.948-6.481-10.24-.803-.804-1.963-1.836-2.061-1.835z" color="#000" display="block" overflow="visible" fill="none" stroke="#000" stroke-linecap="square" stroke-dashoffset="20" stroke-opacity=".079"/><circle style="isolation:auto;mix-blend-mode:normal;marker:none" cx="16.95" cy="278.633" r="4.764" color="#000" display="block" overflow="visible" fill="#eaf7ea" stroke-width=".514" stroke-linecap="square" stroke-dashoffset="20" stroke-opacity=".905"/><path d="M16.712 281.346a2.91 2.91 0 0 1-2.374-2.185c-.08-.323-.077-.978.004-1.294a2.89 2.89 0 0 1 1.203-1.715c.518-.343.955-.475 1.577-.475s1.059.132 1.578.475a2.913 2.913 0 0 1 1.206 1.724c.076.311.076.975 0 1.287a2.903 2.903 0 0 1-2.075 2.119 3.457 3.457 0 0 1-1.12.064zm-.723-3.403c.127-.268.399-.506.713-.624.185-.07.194-.102.09-.319a.762.762 0 0 0-.509-.384c-.512-.123-1.02.381-.894.885.054.214.153.368.304.47.167.113.232.107.296-.028z" fill="#8cd3a5" stroke-width=".034"/><path d="M16.73 279.72a1.341 1.341 0 0 1-.81-.824c-.05-.167-.067-.549-.029-.649.016-.041.072-.054.232-.055.448 0 .787-.298.841-.735l.022-.173.242.001a.835.835 0 0 1 .436.096c.242.118.477.356.599.603.083.17.094.23.094.534 0 .306-.01.363-.097.54-.123.25-.348.474-.595.596-.158.077-.25.097-.489.105a1.49 1.49 0 0 1-.445-.04z" fill="#294d2d" stroke-width=".034"/><path d="M25.64 277.324a2.3 2.3 0 0 0 .244.189c.384.27.665.627.856 1.087.054.128.159.295.241.382 1.076 1.138 1.807 2.685 2.08 4.396.09.553.09 2.04 0 2.593-.154.967-.48 1.968-.886 2.716-.153.283-.442.761-.475.788a.903.903 0 0 0-.062.223c-.346.39-1.252-.144-1.543-1.578l.16-.023.19-.385c.47-.957.706-1.972.706-3.038 0-.808-.113-1.478-.383-2.263-.143-.415-.443-1.064-.522-1.13-.036-.03-.107.007-.324.171-.154.116-.37.395-.282-.42.168-.58-.013-3.725 0-3.708zm-18.022 3.947c.014.023.011.043-.007.043-.052 0-.368.677-.514 1.103a6.55 6.55 0 0 0-.382 2.257c0 1.067.236 2.081.708 3.04.189.384.19.385.332.408.508.69-1.113 2.272-1.59 1.383 0-.05-.013-.098-.028-.104-.042-.017-.244-.342-.444-.715-.42-.783-.732-1.738-.888-2.716-.088-.552-.088-2.04 0-2.592.2-1.258.624-2.375 1.276-3.368.224-.341.57-.785.877-1.114.048-.147.645 2.351.66 2.375z" fill="#888960" stroke-width=".034"/><path d="M8.52 293.261a2.51 2.51 0 0 1-1.838-1.427c-.17-.373-.22-.619-.223-1.09-.003-.402-.008-.438-.095-.584-.123-.204-.207-.542-.211-.839-.004-.276.092-.515.306-.765.231-.27.636-.479.946-.487.166-.005.622.105.786.19.094.049.15.05.474.013.317-.036.413-.034.702.015.688.116 1.327.494 1.518.897a.753.753 0 0 1-.013.705c-.13.257-.31.356-.643.355-.266-.001-.372-.043-.653-.257-.247-.188-.408-.249-.667-.25a1.03 1.03 0 0 0-.93.583c-.064.131-.082.222-.082.424 0 .339.119.595.367.79.161.128.262.168.696.27.24.056.465.204.556.364.215.38-.04.995-.46 1.112-.16.044-.198.042-.536-.019zm16.254.005c-.408-.15-.632-.73-.424-1.098.091-.161.316-.308.556-.365.434-.102.535-.141.697-.27.248-.195.367-.451.367-.79 0-.202-.018-.293-.082-.424a1.027 1.027 0 0 0-.93-.583c-.259.001-.42.062-.667.25-.282.215-.387.256-.653.257-.334 0-.513-.098-.643-.355a.753.753 0 0 1-.013-.705c.19-.403.83-.78 1.518-.897a1.89 1.89 0 0 1 .683-.016c.322.037.357.035.502-.029.194-.086.59-.178.744-.173.254.008.609.166.839.375.216.196.424.6.437.848.008.163-.102.6-.202.8-.086.176-.093.221-.096.635-.002.517-.053.75-.254 1.166-.385.797-1.135 1.308-2.058 1.404a.74.74 0 0 1-.321-.03zm-7.584-2.258c-2.125.04-4.887-1.247-5.559-3.128-.054-.181-.103-.25-.406-.566-.618-.645-.987-1.108-1.389-1.743a11.216 11.216 0 0 1-1.408-3.316 8.497 8.497 0 0 0-.15-.556 6.29 6.29 0 0 0-.249-.17l-.367-.247c-.278-.187-.586-.702-.708-1.184-.088-.348-.096-.979-.014-1.134.03-.057.092-.202.137-.322.179-.471.504-.886.904-1.152.128-.085.248-.174.265-.198.018-.024.06-.167.095-.317.194-.867.619-1.997 1.151-3.065 1.123-2.253 2.77-4.476 5.187-6.996.607-.634 2.22-2.197 2.268-2.199.098 0 1.258 1.03 2.061 1.835 3.29 3.293 5.665 7.046 6.481 10.24.07.276.138.516.15.533.012.017.122.102.245.189.4.282.64.594.895 1.165.138.308.144.338.16.74.013.379.006.45-.076.737a3.03 3.03 0 0 1-.207.525c-.127.227-.384.565-.43.565-.068 0-.584.423-.6.491-.264 1.111-.477 1.773-.804 2.496a10.18 10.18 0 0 1-2.165 3.117c-.395.392-.476.49-.524.636-2.085 1.969-3.011 2.99-4.943 3.024zm.278-9.181c.51-.064.878-.188 1.34-.45.306-.174.806-.632 1.022-.937.471-.664.697-1.52.604-2.29-.1-.82-.427-1.48-1.02-2.054a3.233 3.233 0 0 0-1.504-.84c-.291-.077-.414-.09-.822-.09-.41 0-.531.013-.823.09a3.233 3.233 0 0 0-1.504.84 3.283 3.283 0 0 0-1.02 2.054c-.093.77.133 1.626.604 2.29.216.305.716.763 1.022.937.694.394 1.378.54 2.101.45z" fill="#3ea03e" stroke-width=".034"/><path d="M16.907 291.425c-4.204.008-5.325-3.678-5.325-3.678s2.2 2.469 5.266 2.435c3.065-.035 5.428-2.466 5.428-2.466s-1.165 3.702-5.37 3.71zm-10.519-1.278a1.436 1.436 0 0 1-.2-.758c-.005-.247.006-.298.107-.503.209-.425.632-.725 1.088-.772.2-.02.57.058.78.166.145.073.145.074.06.108a3.572 3.572 0 0 0-.782.418c-.38.288-.71.767-.85 1.235a1.338 1.338 0 0 1-.086.235c-.013.016-.066-.042-.117-.129zm20.904-.06c-.066-.255-.282-.666-.479-.907a2.592 2.592 0 0 0-1.118-.769l-.171-.06.188-.087c.228-.106.608-.176.791-.147.55.088 1.02.524 1.134 1.053.05.225.05.199-.016.503-.05.23-.21.591-.262.591-.012 0-.042-.08-.067-.176zm-10.613-3.889c-.047-.047-.054-.194-.054-1.095 0-.9.007-1.048.054-1.095.038-.039.121-.054.293-.054.404 0 .373-.096.373 1.149s.031 1.149-.373 1.149c-.172 0-.255-.015-.293-.054zm-.86-.158l-.266-.067-.129-.033v-.972c0-.855.007-.975.055-.993.08-.03.538-.024.589.008.034.021.041.255.034 1.054-.01 1.158.013 1.078-.283 1.003zm2.061-.014c-.011-.03-.02-.492-.02-1.028 0-1.125-.03-1.044.372-1.044.365 0 .347-.05.347 1.008 0 .668-.01.913-.042.952-.024.03-.163.079-.31.11-.326.069-.321.069-.347 0zm-3.33-.667a1.348 1.348 0 0 1-.282-.192c-.03-.043-.044-.214-.044-.583 0-.626.002-.63.326-.63.352 0 .326-.063.326.793 0 .579-.01.75-.043.748a1.63 1.63 0 0 1-.282-.136zm4.51-.612c0-.856-.027-.793.326-.793.325 0 .325 0 .325.665 0 .393-.013.573-.043.611-.042.054-.499.267-.571.267-.026 0-.038-.235-.038-.75zm-2.362-2.34c-1.58-.166-2.939-1.322-3.348-2.846a3.867 3.867 0 0 1 1.008-3.772 3.867 3.867 0 0 1 3.772-1.008 3.934 3.934 0 0 1 2.73 2.73 3.886 3.886 0 0 1-1.008 3.772 3.947 3.947 0 0 1-1.783 1.024c-.237.06-.89.145-1.028.134-.03-.001-.185-.018-.343-.035zm1.23-.646a3.453 3.453 0 0 0 2.44-2.42c.064-.23.076-.363.076-.84 0-.674-.054-.921-.318-1.457a3.317 3.317 0 0 0-1.628-1.596c-.487-.228-.78-.287-1.41-.287-.63 0-.924.06-1.41.287a3.317 3.317 0 0 0-1.629 1.596c-.264.536-.318.783-.318 1.458 0 .651.053.91.287 1.398.183.384.35.63.627.921a3.453 3.453 0 0 0 1.825.993c.36.07 1.091.043 1.458-.052zm-9.879-.036c-.462-.307-.715-.584-.917-1.003-.231-.482-.307-.849-.282-1.37.01-.225.038-.442.061-.483.023-.042.096-.208.161-.37.137-.339.414-.753.644-.96.207-.187.577-.432.607-.402.013.013-.004.201-.037.419a12.448 12.448 0 0 0 .035 3.874c.088.538.09.536-.272.295zm17.569-.184l.077-.591c.144-1.09.09-2.783-.113-3.594-.028-.114.033-.105.234.034.427.293.695.635.944 1.205.15.342.165.4.183.757a2.592 2.592 0 0 1-.5 1.692c-.129.171-.736.67-.815.67-.018 0 .03-.131-.01-.173z" fill="#1a6f25" stroke-width=".034"/><path d="M16.693 285.103v-1.08h.583v2.16h-.583zm.498 0v-.995h-.412l-.01.96c-.004.528 0 .98.01 1.005.011.032.075.042.214.035l.198-.011zm-1.372.886l-.283-.064-.077-.017V284.023h.617v.992c0 .546-.012.999-.026 1.006a.841.841 0 0 1-.231-.032zm.154-.972v-.926h-.413l.01.882.009.88.171.041c.095.023.183.043.198.045.014.001.025-.413.025-.922zm1.974 1.002c-.01-.01-.02-.464-.02-1.007v-.99h.584v1.886l-.094.02-.273.066c-.098.025-.187.036-.197.025zm.367-.15l.13-.032-.01-.864-.009-.865h-.412l-.009.874c-.005.48-.002.893.007.915.015.04.04.038.303-.028zm-3.781-.573l-.223-.125-.01-.574-.009-.574h.55v.703c0 .541-.01.702-.042.7a1.474 1.474 0 0 1-.266-.13zm.232-.596l-.01-.592h-.377l-.009.49-.01.488.162.103c.09.056.183.103.208.103.036 0 .044-.118.036-.592zm4.329.03v-.707h.548V285.218l-.194.089c-.107.05-.23.098-.274.11l-.08.019zm.378.475l.104-.053-.01-.522-.01-.522h-.376l-.01.565a6.06 6.06 0 0 0 .007.608c.019.047.096.027.295-.076zm-2.987-2.86a4.352 4.352 0 0 1-1.545-.621 4.821 4.821 0 0 1-.993-.983 4.409 4.409 0 0 1-.57-1.23c-.087-.313-.095-.39-.095-.958 0-.657.034-.886.2-1.33a3.922 3.922 0 0 1 2.647-2.416c.316-.087.388-.094.976-.094.589 0 .659.007.977.095.4.112.936.362 1.25.583.3.212.722.639.929.938.236.342.46.823.572 1.23.088.317.095.39.095.977 0 .586-.007.66-.095.977a3.869 3.869 0 0 1-1.045 1.771 3.488 3.488 0 0 1-1.051.735c-.533.253-.87.328-1.53.342-.31.007-.636-.001-.722-.017zm1.26-.537a3.35 3.35 0 0 0 1.679-.88c.747-.717 1.076-1.543 1.032-2.589-.038-.907-.364-1.623-1.032-2.264a3.263 3.263 0 0 0-2.336-.934c-.906 0-1.69.313-2.337.934-.704.676-1.042 1.467-1.04 2.438 0 .942.347 1.75 1.035 2.41a3.39 3.39 0 0 0 1.662.883c.319.069 1.01.07 1.337.001z" fill="#226e28" stroke-width=".034"/></g></svg>