<svg xmlns="http://www.w3.org/2000/svg" xmlns:xlink="http://www.w3.org/1999/xlink" height="128" viewBox="0 0 128 128" width="128"><title>Template icons dark</title><defs><linearGradient id="d"><stop offset="0" stop-color="#f7f7f7"/><stop offset="1" stop-color="#e8e8e8"/></linearGradient><linearGradient id="c"><stop offset="0" stop-color="#dedede"/><stop offset="1" stop-color="#fff" stop-opacity=".974"/></linearGradient><linearGradient id="b"><stop offset="0" stop-color="#ff053c"/><stop offset="1" stop-color="#0b31ff" stop-opacity=".974"/></linearGradient><linearGradient id="a"><stop offset="0" stop-color="#c62091"/><stop offset="1" stop-color="#9d2525"/></linearGradient><linearGradient xlink:href="#a" id="e" x1="24.535" y1="7.996" x2="24.705" y2="38.25" gradientUnits="userSpaceOnUse" gradientTransform="matrix(2.0251 0 0 2.0251 223.232 220.24)"/><linearGradient gradientTransform="matrix(.95027 0 0 .95027 119.958 119.958)" xlink:href="#b" id="f" x1="122" y1="183" x2="196" y2="142" gradientUnits="userSpaceOnUse"/><linearGradient xlink:href="#d" id="g" gradientUnits="userSpaceOnUse" x1="272" y1="298" x2="272" y2="237.102" gradientTransform="translate(-1 -3.78)"/></defs><g transform="translate(-208 -208)"><path style="isolation:auto;mix-blend-mode:normal;marker:none" d="M336 272l-40.037 8.187 27.814 31.367-36.967-18.12L291.777 336 272 298.493 252.223 336l4.967-42.566-36.967 18.12 27.813-31.367L208 272l40.036-8.187-27.813-31.367 36.967 18.12L252.223 208 272 245.507 291.777 208l-4.967 42.566 36.967-18.12-27.814 31.367z" color="#000" display="block" overflow="visible" fill-opacity=".267"/><path style="isolation:auto;mix-blend-mode:normal;marker:none" d="M334 272l-38.785 7.931 26.944 30.387-35.812-17.554L291.16 334 272 297.665 252.84 334l4.813-41.236-35.812 17.554 26.944-30.387L210 272l38.785-7.931-26.944-30.387 35.812 17.554L252.84 210 272 246.335 291.159 210l-4.812 41.236 35.812-17.554-26.944 30.387z" color="#000" display="block" overflow="visible" fill="#fff" fill-opacity=".984"/><path style="isolation:auto;mix-blend-mode:normal;marker:none" d="M314.294 272A42.294 42.294 0 0 1 272 314.294 42.294 42.294 0 0 1 229.706 272 42.294 42.294 0 0 1 272 229.706 42.294 42.294 0 0 1 314.294 272z" color="#000" overflow="visible" fill="url(#e)" stroke="#fff" stroke-width="2.357"/><path style="isolation:auto;mix-blend-mode:normal;marker:none" d="M314.294 272A42.294 42.294 0 0 1 272 314.294 42.294 42.294 0 0 1 229.706 272 42.294 42.294 0 0 1 272 229.706 42.294 42.294 0 0 1 314.294 272z" color="#000" overflow="visible" opacity=".109" fill="url(#f)" stroke="#fff" stroke-width="2.357"/><path style="isolation:auto;mix-blend-mode:normal;marker:none" d="M313.134 270.493a41.154 42.294 0 0 1-41.134 41.9 41.154 42.294 0 0 1-41.134-41.737 41.154 42.294 0 0 0-.02.394A41.154 42.294 0 0 0 272 313.344a41.154 42.294 0 0 0 41.154-42.294 41.154 42.294 0 0 0-.02-.557z" color="#000" overflow="visible" fill-opacity=".297"/><path d="M313.324 273.779A41.344 42.294 0 0 0 272 231.878a41.344 42.294 0 0 0-41.324 41.737 41.344 42.294 0 0 1-.02-.393A41.344 42.294 0 0 1 272 230.928a41.344 42.294 0 0 1 41.344 42.294 41.344 42.294 0 0 1-.02.557z" style="isolation:auto;mix-blend-mode:normal;marker:none" color="#000" overflow="visible" fill="#242424" fill-opacity=".471"/><path style="line-height:1000%;-inkscape-font-specification:Sagar" d="M272.843 229.354c-3.917 0-7.182.68-9.725 2.273-2.472 1.549-4.084 3.927-4.084 6.596v.109l.455 4.215L268.96 284h3.11c-6.008.072-10.906 4.982-10.906 11.006 0 6.068 4.963 11.031 11.031 11.031 6.069 0 11.031-4.963 11.031-11.031 0-6.024-4.898-10.934-10.906-11.006h3.43l9.605-41.559v-3.683c0-2.858-1.48-5.443-3.935-7.043-2.397-1.6-5.317-2.361-8.576-2.361z" font-weight="400" font-family="Sagar" letter-spacing="0" word-spacing="0" fill-opacity=".136" paint-order="stroke fill markers"/><path style="line-height:1000%;-inkscape-font-specification:Sagar" d="M272.512 231.591c-3.677 0-6.56.655-8.65 1.965-2.091 1.31-3.135 2.936-3.135 4.88l.431 3.99 9.084 39.765h3.567L283 242.425v-3.453c0-2.262-1.009-4.048-3.027-5.357-2.019-1.35-4.506-2.024-7.461-2.024zm-.649 54.621a9.008 9.008 0 0 0-9.008 9.008 9.008 9.008 0 0 0 9.008 9.008 9.008 9.008 0 0 0 9.008-9.008 9.008 9.008 0 0 0-9.008-9.008z" font-weight="400" font-family="Sagar" letter-spacing="0" word-spacing="0" fill="url(#g)" paint-order="stroke fill markers"/><circle style="isolation:auto;mix-blend-mode:normal;marker:none" cx="272" cy="272" r="44.662" color="#000" display="block" overflow="visible" fill-opacity=".157"/><circle style="isolation:auto;mix-blend-mode:normal;marker:none" cx="272" cy="272" r="29.267" color="#000" overflow="visible" fill="none" stroke="#fff" stroke-width="1.461" stroke-linejoin="round" stroke-dasharray="1.461,8.766" stroke-opacity=".292"/></g></svg>