<svg xmlns="http://www.w3.org/2000/svg" xmlns:xlink="http://www.w3.org/1999/xlink" height="128" viewBox="0 0 128 128" width="128"><title>Template icons dark</title><defs><linearGradient id="c"><stop offset="0" stop-color="#c3c2dd"/><stop offset="1" stop-color="#fff" stop-opacity=".962"/></linearGradient><linearGradient id="b"><stop offset="0" stop-color="#5a41e2"/><stop offset="1" stop-color="#4c9ce0" stop-opacity=".945"/></linearGradient><linearGradient id="a"><stop offset="0" stop-color="#fffefe"/><stop offset="1" stop-color="#fff" stop-opacity=".855"/></linearGradient><linearGradient gradientTransform="translate(58.667 58.667) scale(1.33333)" xlink:href="#c" id="d" x1="171.402" y1="199.004" x2="171.402" y2="116" gradientUnits="userSpaceOnUse"/></defs><g transform="translate(-207.811 -208.189)"><rect style="isolation:auto;mix-blend-mode:normal;marker:none" width="120" height="120" x="212" y="212" ry="16.563" color="#000" display="block" overflow="visible" fill-opacity=".126" stroke-width=".675" stroke-opacity=".104" paint-order="fill markers stroke"/><rect ry="16.194" y="213.333" x="213.333" height="117.333" width="117.333" style="isolation:auto;mix-blend-mode:normal;marker:none" color="#000" display="block" overflow="visible" fill="url(#d)" stroke-width=".66" stroke-opacity=".104" paint-order="fill markers stroke"/><path style="line-height:23.4421711px;font-variant-ligatures:normal;font-variant-position:normal;font-variant-caps:normal;font-variant-numeric:normal;font-variant-alternates:normal;font-feature-settings:normal;text-indent:0;text-align:start;text-decoration-line:none;text-decoration-style:solid;text-decoration-color:#000;text-transform:none;text-orientation:mixed;shape-padding:0;isolation:auto;mix-blend-mode:normal" d="M272.956 241.846l-2.925 1.524-44.924 23.416v10.545l38.416 21.55v-13.423l-23.627-13.247 33.06-16.898zm8.513 7.886V263.154l23.627 13.247-33.062 16.898v13.467l47.851-24.94V271.28z" color="#000" font-weight="400" font-family="sans-serif" letter-spacing="0" word-spacing="0" white-space="normal" overflow="visible" fill-opacity=".154" stroke-width="4"/><path style="line-height:23.4421711px" d="M270.957 251.422l-35.298 18.04 25.865 14.502v8.836l-34.416-19.307v-8.16l43.849-22.857z" font-weight="400" font-family="sans-serif" letter-spacing="0" word-spacing="0" fill="#483d8b" stroke="#483d8b" stroke-width="4"/><path d="M274.035 291.857l35.298-18.04-25.865-14.502v-8.836l34.416 19.306v8.16l-43.85 22.858z" style="line-height:23.4421711px" font-weight="400" font-size="20.178" font-family="sans-serif" letter-spacing="0" word-spacing="0" fill="#688ccb" stroke="#688ccb" stroke-width="4"/><path style="isolation:auto;mix-blend-mode:normal;marker:none" d="M213.333 313.138v1.333a16.16 16.16 0 0 0 16.196 16.196h84.942a16.16 16.16 0 0 0 16.196-16.196v-1.333a16.16 16.16 0 0 1-16.196 16.195H229.53a16.16 16.16 0 0 1-16.196-16.195z" color="#000" display="block" overflow="visible" fill="#f2f2f8" stroke-width=".66" stroke-opacity=".104" paint-order="fill markers stroke"/><path style="line-height:23.4421711px;font-variant-ligatures:normal;font-variant-position:normal;font-variant-caps:normal;font-variant-numeric:normal;font-variant-alternates:normal;font-feature-settings:normal;text-indent:0;text-align:start;text-decoration-line:none;text-decoration-style:solid;text-decoration-color:#000;text-transform:none;text-orientation:mixed;shape-padding:0;isolation:auto;mix-blend-mode:normal" d="M272.956 251.313l-33.06 16.898 1.245.698 31.815-16.263zm8.513 7.84v1.334l22.383 12.55 1.244-.636zm-56.362 14.178v1.333l38.416 21.55v-1.334zm94.778 4.495l-47.851 24.94v1.333l47.851-24.94z" color="#000" font-weight="400" font-family="sans-serif" letter-spacing="0" word-spacing="0" white-space="normal" overflow="visible" fill="#f2f2f2" fill-opacity=".357" stroke-width="4"/></g></svg>