<svg xmlns="http://www.w3.org/2000/svg" xmlns:xlink="http://www.w3.org/1999/xlink" height="48" viewBox="0 0 48 48" width="48"><title>Template icons dark</title><defs><linearGradient id="d"><stop offset="0" stop-color="#f7f7f7"/><stop offset="1" stop-color="#e8e8e8"/></linearGradient><linearGradient id="c"><stop offset="0" stop-color="#dedede"/><stop offset="1" stop-color="#fff" stop-opacity=".974"/></linearGradient><linearGradient id="b"><stop offset="0" stop-color="#ff053c"/><stop offset="1" stop-color="#0b31ff" stop-opacity=".974"/></linearGradient><linearGradient id="a"><stop offset="0" stop-color="#c62091"/><stop offset="1" stop-color="#9d2525"/></linearGradient><linearGradient xlink:href="#a" id="e" x1="24.535" y1="7.996" x2="24.705" y2="38.25" gradientUnits="userSpaceOnUse" gradientTransform="translate(5.712 4.59) scale(.75941)"/><linearGradient gradientTransform="matrix(.35635 0 0 .35635 -33.016 -33.016)" xlink:href="#b" id="f" x1="122" y1="183" x2="196" y2="142" gradientUnits="userSpaceOnUse"/><linearGradient xlink:href="#d" id="g" gradientUnits="userSpaceOnUse" x1="272" y1="298" x2="272" y2="237.102" gradientTransform="matrix(.375 0 0 .375 -78.375 -79.417)"/></defs><g><path style="isolation:auto;mix-blend-mode:normal;marker:none" d="M48 24l-15.014 3.07 10.43 11.763-13.862-6.795L31.416 48 24 33.935 16.584 48l1.862-15.962-13.862 6.795 10.43-11.763L0 24l15.014-3.07L4.584 9.167l13.862 6.795L16.584 0 24 14.065 31.416 0l-1.862 15.962 13.862-6.795-10.43 11.763z" color="#000" display="block" overflow="visible" fill-opacity=".267"/><path style="isolation:auto;mix-blend-mode:normal;marker:none" d="M47.25 24l-14.545 2.974L42.81 38.37l-13.43-6.583 1.805 15.464L24 33.625 16.815 47.25l1.805-15.464L5.19 38.37l10.105-11.395L.75 24l14.545-2.974L5.19 9.63l13.43 6.583L16.815.75 24 14.375 31.185.75 29.38 16.214 42.81 9.63 32.705 21.026z" color="#000" display="block" overflow="visible" fill="#fff" fill-opacity=".984"/><path style="isolation:auto;mix-blend-mode:normal;marker:none" d="M39.86 24A15.86 15.86 0 0 1 24 39.86 15.86 15.86 0 0 1 8.14 24 15.86 15.86 0 0 1 24 8.14 15.86 15.86 0 0 1 39.86 24z" color="#000" overflow="visible" fill="url(#e)" stroke="#fff" stroke-width=".884"/><path style="isolation:auto;mix-blend-mode:normal;marker:none" d="M39.86 24A15.86 15.86 0 0 1 24 39.86 15.86 15.86 0 0 1 8.14 24 15.86 15.86 0 0 1 24 8.14 15.86 15.86 0 0 1 39.86 24z" color="#000" overflow="visible" opacity=".109" fill="url(#f)" stroke="#fff" stroke-width=".884"/><path style="isolation:auto;mix-blend-mode:normal;marker:none" d="M39.425 23.435A15.433 15.86 0 0 1 24 39.148 15.433 15.86 0 0 1 8.575 23.496a15.433 15.86 0 0 0-.008.148A15.433 15.86 0 0 0 24 39.504a15.433 15.86 0 0 0 15.433-15.86 15.433 15.86 0 0 0-.008-.21z" color="#000" overflow="visible" fill-opacity=".297"/><path d="M39.497 24.667A15.504 15.86 0 0 0 24 8.954 15.504 15.86 0 0 0 8.503 24.606a15.504 15.86 0 0 1-.007-.148A15.504 15.86 0 0 1 24 8.598a15.504 15.86 0 0 1 15.504 15.86 15.504 15.86 0 0 1-.007.209z" style="isolation:auto;mix-blend-mode:normal;marker:none" color="#000" overflow="visible" fill="#242424" fill-opacity=".471"/><path style="line-height:1000%;-inkscape-font-specification:Sagar" d="M24.316 8.008c-1.469 0-2.693.255-3.647.852-.927.58-1.531 1.473-1.531 2.473v.041l.17 1.581L22.86 28.5h1.166c-2.253.027-4.09 1.868-4.09 4.127a4.148 4.148 0 0 0 4.137 4.137 4.148 4.148 0 0 0 4.137-4.137c0-2.259-1.837-4.1-4.09-4.127h1.286l3.602-15.584v-1.382c0-1.072-.555-2.04-1.476-2.64-.899-.6-1.994-.886-3.216-.886z" font-weight="400" font-family="Sagar" letter-spacing="0" word-spacing="0" fill-opacity=".136" paint-order="stroke fill markers"/><path style="line-height:1000%;-inkscape-font-specification:Sagar" d="M24.192 8.847c-1.379 0-2.46.245-3.244.737-.784.49-1.176 1.1-1.176 1.83l.162 1.495 3.407 14.913h1.337l3.447-14.913v-1.294c0-.849-.378-1.518-1.135-2.01-.757-.506-1.69-.758-2.798-.758zm-.243 20.483a3.378 3.378 0 0 0-3.378 3.378 3.378 3.378 0 0 0 3.378 3.377 3.378 3.378 0 0 0 3.378-3.377 3.378 3.378 0 0 0-3.378-3.378z" font-weight="400" font-family="Sagar" letter-spacing="0" word-spacing="0" fill="url(#g)" paint-order="stroke fill markers"/><circle style="isolation:auto;mix-blend-mode:normal;marker:none" cx="24" cy="24" r="16.748" color="#000" display="block" overflow="visible" fill-opacity=".157"/><circle style="isolation:auto;mix-blend-mode:normal;marker:none" cx="24" cy="24" r="10.975" color="#000" overflow="visible" fill="none" stroke="#fff" stroke-width=".548" stroke-linejoin="round" stroke-dasharray=".54787491,3.28724941" stroke-opacity=".292"/></g></svg>