<svg xmlns="http://www.w3.org/2000/svg" xmlns:xlink="http://www.w3.org/1999/xlink" height="48" viewBox="0 0 48 48" width="48"><title>Template icons dark</title><defs><linearGradient id="c"><stop offset="0" stop-color="#c3c2dd"/><stop offset="1" stop-color="#fff" stop-opacity=".962"/></linearGradient><linearGradient id="b"><stop offset="0" stop-color="#5a41e2"/><stop offset="1" stop-color="#4c9ce0" stop-opacity=".945"/></linearGradient><linearGradient id="a"><stop offset="0" stop-color="#fffefe"/><stop offset="1" stop-color="#fff" stop-opacity=".855"/></linearGradient><linearGradient gradientTransform="matrix(.52273 0 0 .52273 -59.636 -59.636)" xlink:href="#c" id="d" x1="171.402" y1="199.004" x2="171.402" y2="116" gradientUnits="userSpaceOnUse"/></defs><g><rect style="isolation:auto;mix-blend-mode:normal;marker:none" width="48" height="48" ry="6.625" color="#000" display="block" overflow="visible" fill-opacity=".126" stroke-width=".27" stroke-opacity=".104" paint-order="fill markers stroke"/><rect ry="6.349" y="1" x="1" height="46" width="46" style="isolation:auto;mix-blend-mode:normal;marker:none" color="#000" display="block" overflow="visible" fill="url(#d)" stroke-width=".259" stroke-opacity=".104" paint-order="fill markers stroke"/><path style="line-height:23.4421711px;font-variant-ligatures:normal;font-variant-position:normal;font-variant-caps:normal;font-variant-numeric:normal;font-variant-alternates:normal;font-feature-settings:normal;text-indent:0;text-align:start;text-decoration-line:none;text-decoration-style:solid;text-decoration-color:#000;text-transform:none;text-orientation:mixed;shape-padding:0;isolation:auto;mix-blend-mode:normal" d="M24.382 11.939l-1.17.609-17.97 9.367v4.217l15.367 8.62v-5.369l-9.45-5.299 13.223-6.759zm3.405 3.154v5.368l9.452 5.3-13.225 6.759v5.386l19.14-9.976v-4.217z" color="#000" font-weight="400" font-family="sans-serif" letter-spacing="0" word-spacing="0" white-space="normal" overflow="visible" fill-opacity=".154" stroke-width="1.6"/><path style="line-height:23.4421711px" d="M23.583 15.769l-14.12 7.216 10.346 5.8v3.535L6.043 24.597v-3.264l17.54-9.143z" font-weight="400" font-family="sans-serif" letter-spacing="0" word-spacing="0" fill="#483d8b" stroke="#483d8b" stroke-width="1.6"/><path d="M24.814 31.943l14.12-7.216-10.347-5.801v-3.534l13.767 7.722v3.264l-17.54 9.143z" style="line-height:23.4421711px" font-weight="400" font-size="20.178" font-family="sans-serif" letter-spacing="0" word-spacing="0" fill="#688ccb" stroke="#688ccb" stroke-width="1.6"/><path style="isolation:auto;mix-blend-mode:normal;marker:none" d="M1 40.068v.523a6.336 6.336 0 0 0 6.35 6.35h33.3A6.336 6.336 0 0 0 47 40.59v-.523c0 3.518-2.832 5.939-6.35 5.939H7.35c-3.518 0-6.35-2.421-6.35-5.939z" color="#000" display="block" overflow="visible" fill="#f2f2f8" stroke-width=".259" stroke-opacity=".104" paint-order="fill markers stroke"/><path style="line-height:23.4421711px;font-variant-ligatures:normal;font-variant-position:normal;font-variant-caps:normal;font-variant-numeric:normal;font-variant-alternates:normal;font-feature-settings:normal;text-indent:0;text-align:start;text-decoration-line:none;text-decoration-style:solid;text-decoration-color:#000;text-transform:none;text-orientation:mixed;shape-padding:0;isolation:auto;mix-blend-mode:normal" d="M24.382 15.725l-13.224 6.76.498.279 12.726-6.506zm3.405 3.136v.534l8.954 5.02.498-.255zM5.243 24.532v.534l15.366 8.62v-.534zm37.911 1.798l-19.14 9.976v.534l19.14-9.976z" color="#000" font-weight="400" font-family="sans-serif" letter-spacing="0" word-spacing="0" white-space="normal" overflow="visible" fill="#f2f2f2" fill-opacity=".357" stroke-width="1.6"/></g></svg>