<svg xmlns="http://www.w3.org/2000/svg" xmlns:xlink="http://www.w3.org/1999/xlink" height="16" viewBox="0 0 16 16" width="16"><title>Template icons dark</title><defs><linearGradient id="d"><stop offset="0" stop-color="#f7f7f7"/><stop offset="1" stop-color="#e8e8e8"/></linearGradient><linearGradient id="c"><stop offset="0" stop-color="#dedede"/><stop offset="1" stop-color="#fff" stop-opacity=".974"/></linearGradient><linearGradient id="b"><stop offset="0" stop-color="#ff053c"/><stop offset="1" stop-color="#0b31ff" stop-opacity=".974"/></linearGradient><linearGradient id="a"><stop offset="0" stop-color="#c62091"/><stop offset="1" stop-color="#9d2525"/></linearGradient><linearGradient xlink:href="#d" id="e" gradientUnits="userSpaceOnUse" x1="272" y1="298" x2="272" y2="237.102" gradientTransform="matrix(.125 0 0 .125 -98.125 -98.472)"/></defs><g transform="translate(72 72)"><path style="isolation:auto;mix-blend-mode:normal;marker:none" d="M-56-64l-5.005 1.023 3.477 3.921-4.62-2.265.62 5.321L-64-60.688-66.472-56l.62-5.32-4.62 2.264 3.477-3.92L-72-64l5.005-1.023-3.477-3.921 4.62 2.265-.62-5.321L-64-67.312-61.528-72l-.62 5.32 4.62-2.264-3.477 3.92z" color="#000" display="block" overflow="visible" fill="#e8e8e8"/><path style="isolation:auto;mix-blend-mode:normal;marker:none" d="M-58.713-64A5.287 5.287 0 0 1-64-58.713 5.287 5.287 0 0 1-69.287-64 5.287 5.287 0 0 1-64-69.287 5.287 5.287 0 0 1-58.713-64z" color="#000" overflow="visible" fill="#a7243f" stroke="#fff" stroke-width=".295"/><path style="line-height:1000%;-inkscape-font-specification:Sagar" d="M-63.936-69.051c-.46 0-.82.082-1.081.246-.262.163-.392.367-.392.61l.054.498 1.135 4.97h.446l1.149-4.97v-.431c0-.283-.126-.506-.378-.67-.253-.169-.564-.253-.933-.253zm-.081 6.828a1.126 1.126 0 0 0-1.126 1.126 1.126 1.126 0 0 0 1.126 1.125 1.126 1.126 0 0 0 1.126-1.125 1.126 1.126 0 0 0-1.126-1.126z" font-weight="400" font-family="Sagar" letter-spacing="0" word-spacing="0" fill="url(#e)" paint-order="stroke fill markers"/><circle style="isolation:auto;mix-blend-mode:normal;marker:none" cx="-64" cy="-64" r="5.827" color="#000" display="block" overflow="visible" fill-opacity=".157"/></g></svg>