<svg xmlns="http://www.w3.org/2000/svg" height="16" viewBox="0 0 16 16" width="16"><title>Template icons dark</title><defs><linearGradient id="a"><stop offset="0" stop-color="#99c7d1"/><stop offset="1" stop-color="#e4eff7"/></linearGradient><linearGradient id="b"><stop offset="0" stop-color="#4378aa"/><stop offset="1" stop-color="#3797ca"/></linearGradient><linearGradient id="c"><stop offset="0" stop-color="#649ad2"/><stop offset="1" stop-color="#87c7e0"/></linearGradient></defs><g fill="#fff"><path d="M15.209 4.537l-7.336.53c.032.006.072.002.102.01a2.97 2.97 0 0 1 2.969 2.97c0 .853-.389 1.64-.987 2.207l-2.373 5.725c.139.007.274.021.416.021a8 8 0 0 0 8-8 7.959 7.959 0 0 0-.791-3.463zM6.102 15.752c.127.033.253.07.384.096-.13-.026-.256-.065-.384-.096zm.642.137z" opacity=".4" fill-rule="evenodd" stroke-width=".348"/><path d="M8 0a7.977 7.977 0 0 0-6.373 3.176l3.821 6.427c.017.028.04.05.059.076a2.932 2.932 0 0 1-.502-1.633 2.968 2.968 0 0 1 2.737-2.959l7.496-.554a8.218 8.218 0 0 0-1.013-1.627C12.758 1.114 10.497 0 8 0zM1.096 3.967c-.003.004-.006.007-.008.012l.002.002c.002-.005.003-.01.006-.014z" opacity=".7" fill-rule="evenodd" stroke-width=".348"/><path d="M1.625 3.172a8.203 8.203 0 0 0-.53.795l-.005.013a7.812 7.812 0 0 0-.422.825 7.986 7.986 0 0 0 .217 6.851 7.993 7.993 0 0 0 6.697 4.332l2.375-5.734a2.973 2.973 0 0 1-.628.435 2.961 2.961 0 0 1-3.823-1.01c-.017-.027-.04-.048-.058-.076L1.627 3.176z" style="isolation:auto;mix-blend-mode:normal" color="#000" overflow="visible" opacity=".1" fill-opacity=".995" fill-rule="evenodd" stroke-width=".348"/><path style="line-height:normal;font-variant-ligatures:normal;font-variant-position:normal;font-variant-caps:normal;font-variant-numeric:normal;font-variant-alternates:normal;font-feature-settings:normal;text-indent:0;text-align:start;text-decoration-line:none;text-decoration-style:solid;text-decoration-color:#000;text-transform:none;text-orientation:mixed;shape-padding:0;isolation:auto;mix-blend-mode:normal;marker:none" d="M8 0C3.586 0 0 3.586 0 8s3.586 8 8 8 8-3.586 8-8-3.586-8-8-8zm0 .822A7.172 7.172 0 0 1 15.178 8 7.172 7.172 0 0 1 8 15.178 7.172 7.172 0 0 1 .822 8 7.172 7.172 0 0 1 8 .822z" color="#000" font-weight="400" font-family="sans-serif" white-space="normal" display="block" overflow="visible" fill-opacity=".497" stroke-width=".823"/><path style="line-height:normal;font-variant-ligatures:normal;font-variant-position:normal;font-variant-caps:normal;font-variant-numeric:normal;font-variant-alternates:normal;font-feature-settings:normal;text-indent:0;text-align:start;text-decoration-line:none;text-decoration-style:solid;text-decoration-color:#000;text-transform:none;text-orientation:mixed;shape-padding:0;isolation:auto;mix-blend-mode:normal;marker:none" d="M8 4.264A3.743 3.743 0 0 0 4.264 8 3.743 3.743 0 0 0 8 11.736 3.743 3.743 0 0 0 11.736 8 3.743 3.743 0 0 0 8 4.264zm0 .806A2.924 2.924 0 0 1 10.93 8 2.924 2.924 0 0 1 8 10.93 2.924 2.924 0 0 1 5.07 8 2.924 2.924 0 0 1 8 5.07z" color="#000" font-weight="400" font-family="sans-serif" white-space="normal" display="block" overflow="visible" fill-opacity=".995" stroke-width=".726"/></g></svg>