<svg xmlns="http://www.w3.org/2000/svg" xmlns:xlink="http://www.w3.org/1999/xlink" height="16" viewBox="0 0 16 16" width="16"><title>Template icons dark</title><defs><linearGradient id="c"><stop offset="0" stop-color="#c3c2dd"/><stop offset="1" stop-color="#fff" stop-opacity=".962"/></linearGradient><linearGradient id="b"><stop offset="0" stop-color="#5a41e2"/><stop offset="1" stop-color="#4c9ce0" stop-opacity=".945"/></linearGradient><linearGradient id="a"><stop offset="0" stop-color="#fffefe"/><stop offset="1" stop-color="#fff" stop-opacity=".855"/></linearGradient><linearGradient gradientTransform="matrix(.18182 0 0 .18182 -93.09 -93.09)" xlink:href="#c" id="d" x1="171.402" y1="199.004" x2="171.402" y2="116" gradientUnits="userSpaceOnUse"/></defs><g transform="translate(72 72)"><rect ry="2.208" y="-72" x="-72" height="16" width="16" style="isolation:auto;mix-blend-mode:normal;marker:none" color="#000" display="block" overflow="visible" fill="url(#d)" stroke-width=".09" stroke-opacity=".104" paint-order="fill markers stroke"/><path style="line-height:23.4421711px;font-variant-ligatures:normal;font-variant-position:normal;font-variant-caps:normal;font-variant-numeric:normal;font-variant-alternates:normal;font-feature-settings:normal;text-indent:0;text-align:start;text-decoration-line:none;text-decoration-style:solid;text-decoration-color:#000;text-transform:none;text-orientation:mixed;shape-padding:0;isolation:auto;mix-blend-mode:normal" d="M-63.873-67.02l-.39.203-5.99 3.122v1.406l5.123 2.873v-1.79l-3.15-1.766 4.407-2.253zm1.136 1.05v1.79l3.15 1.767-4.408 2.253v1.795l6.38-3.325v-1.406z" color="#000" font-weight="400" font-family="sans-serif" letter-spacing="0" word-spacing="0" white-space="normal" overflow="visible" fill-opacity=".269" stroke-width=".533"/><path style="line-height:23.4421711px" d="M-64.14-66.744l-4.706 2.406 3.45 1.933v1.178l-4.59-2.574v-1.088l5.847-3.048z" font-weight="400" font-family="sans-serif" letter-spacing="0" word-spacing="0" fill="#483d8b" stroke="#483d8b" stroke-width=".533"/><path d="M-63.729-61.352l4.707-2.406-3.449-1.933v-1.178l4.589 2.574v1.088l-5.847 3.047z" style="line-height:23.4421711px" font-weight="400" font-size="20.178" font-family="sans-serif" letter-spacing="0" word-spacing="0" fill="#688ccb" stroke="#688ccb" stroke-width=".533"/></g></svg>