<svg xmlns:osb="http://www.openswatchbook.org/uri/2009/osb" xmlns="http://www.w3.org/2000/svg" height="16" viewBox="0 0 16 16" width="16"><title>Template icons dark</title><defs><linearGradient id="g" osb:paint="solid"><stop offset="0" stop-opacity=".196"/></linearGradient><linearGradient id="f" osb:paint="solid"><stop offset="0" stop-color="#fff" stop-opacity=".782"/></linearGradient><linearGradient id="e" osb:paint="solid"><stop offset="0" stop-opacity=".078"/></linearGradient><linearGradient id="d" osb:paint="solid"><stop offset="0" stop-opacity=".157"/></linearGradient><linearGradient id="b"><stop offset="0" stop-color="#fff"/><stop offset="1" stop-color="#dfdfdf"/></linearGradient><linearGradient id="a"><stop offset="0" stop-color="#f0f0f0"/><stop offset="1" stop-color="#fff"/></linearGradient><linearGradient id="c"><stop offset="0" stop-opacity="0"/><stop offset="1" stop-opacity=".102"/></linearGradient><linearGradient id="h" osb:paint="solid"><stop offset="0" stop-opacity=".084"/></linearGradient></defs><path style="line-height:1000%" d="M8.73 7.988q-1.86 0-2.577.425-.717.425-.717 1.451 0 .817.534 1.301.542.475 1.468.475 1.276 0 2.043-.9.775-.91.775-2.41v-.342zm3.06-.634v5.329h-1.534v-1.418q-.525.85-1.309 1.26-.784.4-1.918.4-1.434 0-2.285-.8-.842-.81-.842-2.16 0-1.577 1.05-2.377 1.06-.801 3.153-.801h2.151v-.15q0-1.06-.7-1.635-.692-.583-1.952-.583-.8 0-1.559.191-.759.192-1.46.576V3.768q.843-.325 1.635-.484.792-.166 1.543-.166 2.026 0 3.027 1.05 1 1.051 1 3.186z" font-size="53.333" font-family="sans-serif" letter-spacing="0" word-spacing="0" fill="#9dc3ef" fill-opacity=".63" stroke="#82a9e5" stroke-width=".192" stroke-opacity=".995"/></svg>