<svg xmlns="http://www.w3.org/2000/svg" xmlns:xlink="http://www.w3.org/1999/xlink" height="96" viewBox="0 0 96 96" width="96"><title>Template icons dark</title><defs><linearGradient id="d"><stop offset="0" stop-color="#f7f7f7"/><stop offset="1" stop-color="#e8e8e8"/></linearGradient><linearGradient id="c"><stop offset="0" stop-color="#dedede"/><stop offset="1" stop-color="#fff" stop-opacity=".974"/></linearGradient><linearGradient id="b"><stop offset="0" stop-color="#ff053c"/><stop offset="1" stop-color="#0b31ff" stop-opacity=".974"/></linearGradient><linearGradient id="a"><stop offset="0" stop-color="#c62091"/><stop offset="1" stop-color="#9d2525"/></linearGradient><linearGradient xlink:href="#a" id="e" x1="24.535" y1="7.996" x2="24.705" y2="38.25" gradientUnits="userSpaceOnUse" gradientTransform="matrix(1.51882 0 0 1.51882 123.424 121.18)"/><linearGradient gradientTransform="matrix(.7127 0 0 .7127 45.968 45.968)" xlink:href="#b" id="f" x1="122" y1="183" x2="196" y2="142" gradientUnits="userSpaceOnUse"/><linearGradient xlink:href="#d" id="g" gradientUnits="userSpaceOnUse" x1="272" y1="298" x2="272" y2="237.102" gradientTransform="matrix(.75 0 0 .75 -44.75 -46.835)"/></defs><g transform="translate(-112 -112)"><path style="isolation:auto;mix-blend-mode:normal;marker:none" d="M208 160l-30.027 6.14 20.86 23.526-27.725-13.59L174.833 208 160 179.87 145.167 208l3.725-31.925-27.725 13.59 20.86-23.525L112 160l30.027-6.14-20.86-23.526 27.725 13.59L145.167 112 160 140.13 174.833 112l-3.725 31.925 27.725-13.59-20.86 23.525z" color="#000" display="block" overflow="visible" fill-opacity=".267"/><path style="isolation:auto;mix-blend-mode:normal;marker:none" d="M206.5 160l-29.09 5.948 20.21 22.79-26.86-13.165 3.61 30.927L160 179.25l-14.37 27.25 3.61-30.927-26.86 13.166 20.209-22.79L113.5 160l29.089-5.948-20.208-22.79 26.858 13.165-3.608-30.927L160 140.75l14.37-27.25-3.61 30.927 26.86-13.166-20.209 22.79z" color="#000" display="block" overflow="visible" fill="#fff" fill-opacity=".984"/><path style="isolation:auto;mix-blend-mode:normal;marker:none" d="M191.72 160A31.72 31.72 0 0 1 160 191.72 31.72 31.72 0 0 1 128.28 160 31.72 31.72 0 0 1 160 128.28 31.72 31.72 0 0 1 191.72 160z" color="#000" overflow="visible" fill="url(#e)" stroke="#fff" stroke-width="1.768"/><path style="isolation:auto;mix-blend-mode:normal;marker:none" d="M191.72 160A31.72 31.72 0 0 1 160 191.72 31.72 31.72 0 0 1 128.28 160 31.72 31.72 0 0 1 160 128.28 31.72 31.72 0 0 1 191.72 160z" color="#000" overflow="visible" opacity=".109" fill="url(#f)" stroke="#fff" stroke-width="1.768"/><path style="isolation:auto;mix-blend-mode:normal;marker:none" d="M190.85 158.87A30.865 31.72 0 0 1 160 190.295a30.865 31.72 0 0 1-30.85-31.303 30.865 31.72 0 0 0-.015.295A30.865 31.72 0 0 0 160 191.007a30.865 31.72 0 0 0 30.865-31.72 30.865 31.72 0 0 0-.015-.417z" color="#000" overflow="visible" fill-opacity=".297"/><path d="M190.993 161.334A31.008 31.72 0 0 0 160 129.908a31.008 31.72 0 0 0-30.993 31.304 31.008 31.72 0 0 1-.015-.296A31.008 31.72 0 0 1 160 129.196a31.008 31.72 0 0 1 31.008 31.72 31.008 31.72 0 0 1-.015.418z" style="isolation:auto;mix-blend-mode:normal;marker:none" color="#000" overflow="visible" fill="#242424" fill-opacity=".471"/><path style="line-height:1000%;-inkscape-font-specification:Sagar" d="M160.632 128.015c-2.938 0-5.386.51-7.293 1.705-1.855 1.162-3.063 2.945-3.063 4.947v.082l.34 3.161L157.72 169h2.332c-4.506.054-8.18 3.736-8.18 8.254 0 4.552 3.722 8.274 8.274 8.274 4.551 0 8.273-3.722 8.273-8.274 0-4.518-3.674-8.2-8.18-8.254h2.573l7.204-31.169v-2.763c0-2.143-1.11-4.082-2.952-5.282-1.797-1.2-3.988-1.77-6.432-1.77z" font-weight="400" font-family="Sagar" letter-spacing="0" word-spacing="0" fill-opacity=".136" paint-order="stroke fill markers"/><path style="line-height:1000%;-inkscape-font-specification:Sagar" d="M160.384 129.693c-2.757 0-4.92.492-6.488 1.474-1.568.982-2.351 2.202-2.351 3.66l.324 2.992 6.813 29.824h2.674l6.894-29.824v-2.59c0-1.697-.757-3.036-2.27-4.018-1.514-1.012-3.38-1.518-5.596-1.518zm-.487 40.966a6.756 6.756 0 0 0-6.755 6.756 6.756 6.756 0 0 0 6.755 6.756 6.756 6.756 0 0 0 6.756-6.756 6.756 6.756 0 0 0-6.756-6.756z" font-weight="400" font-family="Sagar" letter-spacing="0" word-spacing="0" fill="url(#g)" paint-order="stroke fill markers"/><circle style="isolation:auto;mix-blend-mode:normal;marker:none" cx="160" cy="160" r="33.497" color="#000" display="block" overflow="visible" fill-opacity=".157"/><circle style="isolation:auto;mix-blend-mode:normal;marker:none" cx="160" cy="160" r="21.95" color="#000" overflow="visible" fill="none" stroke="#fff" stroke-width="1.096" stroke-linejoin="round" stroke-dasharray="1.09574988,6.57449928" stroke-opacity=".292"/></g></svg>