<svg xmlns="http://www.w3.org/2000/svg" xmlns:xlink="http://www.w3.org/1999/xlink" height="96" viewBox="0 0 96 96" width="96"><title>Template icons dark</title><defs><linearGradient id="c"><stop offset="0" stop-color="#c3c2dd"/><stop offset="1" stop-color="#fff" stop-opacity=".962"/></linearGradient><linearGradient id="b"><stop offset="0" stop-color="#5a41e2"/><stop offset="1" stop-color="#4c9ce0" stop-opacity=".945"/></linearGradient><linearGradient id="a"><stop offset="0" stop-color="#fffefe"/><stop offset="1" stop-color="#fff" stop-opacity=".855"/></linearGradient><linearGradient xlink:href="#c" id="d" x1="171.402" y1="199.004" x2="171.402" y2="116" gradientUnits="userSpaceOnUse"/></defs><g transform="translate(-112 -112)"><rect style="isolation:auto;mix-blend-mode:normal;marker:none" width="90" height="90" x="115" y="115" ry="12.422" color="#000" display="block" overflow="visible" fill-opacity=".126" stroke-width=".506" stroke-opacity=".104" paint-order="fill markers stroke"/><rect ry="12.146" y="116" x="116" height="88" width="88" style="isolation:auto;mix-blend-mode:normal;marker:none" color="#000" display="block" overflow="visible" fill="url(#d)" stroke-width=".495" stroke-opacity=".104" paint-order="fill markers stroke"/><path style="line-height:23.4421711px;font-variant-ligatures:normal;font-variant-position:normal;font-variant-caps:normal;font-variant-numeric:normal;font-variant-alternates:normal;font-feature-settings:normal;text-indent:0;text-align:start;text-decoration-line:none;text-decoration-style:solid;text-decoration-color:#000;text-transform:none;text-orientation:mixed;shape-padding:0;isolation:auto;mix-blend-mode:normal" d="M160.717 137.385l-2.194 1.142-33.693 17.563v7.908l28.813 16.162v-10.066l-17.721-9.936 24.795-12.674zm6.385 5.914v10.066l17.72 9.936-24.797 12.674v10.1l35.89-18.706v-7.908z" color="#000" font-weight="400" font-family="sans-serif" letter-spacing="0" word-spacing="0" white-space="normal" overflow="visible" fill-opacity=".154" stroke-width="3"/><path style="line-height:23.4421711px" d="M159.218 144.567l-26.474 13.53 19.399 10.876v6.627l-25.812-14.48V155l32.887-17.143z" font-weight="400" font-family="sans-serif" letter-spacing="0" word-spacing="0" fill="#483d8b" stroke="#483d8b" stroke-width="3"/><path d="M161.526 174.893L188 161.363l-19.399-10.877v-6.627l25.812 14.48v6.12l-32.887 17.143z" style="line-height:23.4421711px" font-weight="400" font-size="20.178" font-family="sans-serif" letter-spacing="0" word-spacing="0" fill="#688ccb" stroke="#688ccb" stroke-width="3"/><path style="isolation:auto;mix-blend-mode:normal;marker:none" d="M116 190.854v1A12.12 12.12 0 0 0 128.146 204h63.708A12.12 12.12 0 0 0 204 191.854v-1A12.12 12.12 0 0 1 191.854 203h-63.708A12.12 12.12 0 0 1 116 190.854z" color="#000" display="block" overflow="visible" fill="#f2f2f8" stroke-width=".495" stroke-opacity=".104" paint-order="fill markers stroke"/><path style="line-height:23.4421711px;font-variant-ligatures:normal;font-variant-position:normal;font-variant-caps:normal;font-variant-numeric:normal;font-variant-alternates:normal;font-feature-settings:normal;text-indent:0;text-align:start;text-decoration-line:none;text-decoration-style:solid;text-decoration-color:#000;text-transform:none;text-orientation:mixed;shape-padding:0;isolation:auto;mix-blend-mode:normal" d="M160.717 144.484l-24.795 12.674.933.524 23.862-12.198zm6.385 5.881v1l16.787 9.412.933-.476zm-42.272 10.633v1l28.813 16.162v-1zm71.084 3.371l-35.889 18.705v1l35.89-18.705z" color="#000" font-weight="400" font-family="sans-serif" letter-spacing="0" word-spacing="0" white-space="normal" overflow="visible" fill="#f2f2f2" fill-opacity=".357" stroke-width="3"/></g></svg>